SplineFontDB: 3.2
FontName: Xavani
FullName: Xavani
FamilyName: Xavani
Weight: Regular
Copyright: Copyright (c) 2025, W.F.Turnip
UComments: "2025-4-2: Created with FontForge (http://fontforge.org)"
Version: 001.000
ItalicAngle: 0
UnderlinePosition: -87.5
UnderlineWidth: 43.75
Ascent: 625
Descent: 250
InvalidEm: 0
LayerCount: 2
Layer: 0 1 "+gMyXYgAA" 1
Layer: 1 1 "+Uk2XYgAA" 0
XUID: [1021 352 -730677569 5497683]
OS2Version: 0
OS2_WeightWidthSlopeOnly: 0
OS2_UseTypoMetrics: 1
CreationTime: 1743571002
ModificationTime: 1768556378
OS2TypoAscent: 0
OS2TypoAOffset: 1
OS2TypoDescent: 0
OS2TypoDOffset: 1
OS2TypoLinegap: 0
OS2WinAscent: 0
OS2WinAOffset: 1
OS2WinDescent: 0
OS2WinDOffset: 1
HheadAscent: 0
HheadAOffset: 1
HheadDescent: 0
HheadDOffset: 1
OS2Vendor: 'PfEd'
Lookup: 260 0 0 "mark" { "mark-1"  } ['mark' ('latn' <'dflt' > ) ]
MarkAttachClasses: 1
DEI: 91125
Encoding: UnicodeBmp
UnicodeInterp: none
NameList: AGL For New Fonts
DisplaySize: -48
AntiAlias: 0
FitToEm: 0
WinInfo: 714 14 10
BeginPrivate: 0
EndPrivate
AnchorClass2: "vowel" "mark-1"
BeginChars: 65536 112

StartChar: nine
Encoding: 57 57 0
Width: 500
Flags: W
LayerCount: 2
Fore
SplineSet
457.873046875 113.896484375 m 1,0,-1
 444.342773438 100.366210938 l 1,1,-1
 425.208984375 100.366210938 l 1,2,-1
 411.678710938 113.896484375 l 1,3,-1
 411.678710938 266.970703125 l 1,4,-1
 316.970703125 361.678710938 l 1,5,-1
 183.029296875 361.678710938 l 1,6,-1
 88.3212890625 266.970703125 l 1,7,-1
 88.3212890625 133.030273438 l 1,8,-1
 183.030273438 38.3212890625 l 1,9,-1
 336.103515625 38.3212890625 l 1,10,-1
 349.633789062 24.791015625 l 1,11,-1
 349.633789062 5.6572265625 l 1,12,-1
 336.103515625 -7.873046875 l 1,13,-1
 163.896484375 -7.873046875 l 1,14,-1
 42.126953125 113.896484375 l 1,15,-1
 42.126953125 286.103515625 l 1,16,-1
 163.896484375 407.873046875 l 1,17,-1
 336.103515625 407.873046875 l 1,18,-1
 457.873046875 286.103515625 l 1,19,-1
 457.873046875 113.896484375 l 1,0,-1
202.1640625 315.484375 m 1,20,-1
 297.8359375 315.484375 l 1,21,-1
 365.484375 247.8359375 l 1,22,-1
 365.484375 152.1640625 l 1,23,-1
 297.8359375 84.515625 l 1,24,-1
 202.1640625 84.515625 l 1,25,-1
 134.515625 152.1640625 l 1,26,-1
 134.515625 247.8359375 l 1,27,-1
 202.1640625 315.484375 l 1,20,-1
221.30078125 269.291015625 m 1,28,-1
 180.7109375 228.701171875 l 1,29,-1
 180.7109375 171.30078125 l 1,30,-1
 221.30078125 130.7109375 l 1,31,-1
 278.69921875 130.7109375 l 1,32,-1
 319.2890625 171.30078125 l 1,33,-1
 319.2890625 228.69921875 l 1,34,-1
 278.69921875 269.2890625 l 1,35,-1
 278.69921875 269.291015625 l 1,36,-1
 221.30078125 269.291015625 l 1,28,-1
EndSplineSet
EndChar

StartChar: eight
Encoding: 56 56 1
Width: 500
Flags: W
LayerCount: 2
Fore
SplineSet
336.103515625 -7.873046875 m 1,0,-1
 316.969726562 -7.8740234375 l 1,1,-1
 303.440429688 5.6552734375 l 1,2,-1
 303.440429688 24.7900390625 l 1,3,-1
 316.969726562 38.3203125 l 1,4,-1
 411.6796875 133.030273438 l 1,5,-1
 411.6796875 266.969726562 l 1,6,-1
 316.969726562 361.6796875 l 1,7,-1
 183.03125 361.6796875 l 1,8,-1
 88.3212890625 266.969726562 l 1,9,-1
 88.3212890625 133.030273438 l 1,10,-1
 183.03125 38.3203125 l 1,11,-1
 196.560546875 24.7900390625 l 1,12,-1
 196.560546875 5.65625 l 1,13,-1
 183.03125 -7.8740234375 l 1,14,-1
 163.897460938 -7.8740234375 l 1,15,-1
 150.3671875 5.6552734375 l 1,16,-1
 42.126953125 113.89453125 l 1,17,-1
 42.126953125 286.102539062 l 1,18,-1
 163.897460938 407.873046875 l 1,19,-1
 336.102539062 407.873046875 l 1,20,-1
 457.873046875 286.102539062 l 1,21,-1
 457.873046875 113.897460938 l 1,22,-1
 349.6328125 5.6572265625 l 1,23,-1
 336.103515625 -7.873046875 l 1,0,-1
202.1640625 315.484375 m 1,24,-1
 297.8359375 315.484375 l 1,25,-1
 365.484375 247.8359375 l 1,26,-1
 365.484375 152.1640625 l 1,27,-1
 297.8359375 84.515625 l 1,28,-1
 202.1640625 84.515625 l 1,29,-1
 134.515625 152.1640625 l 1,30,-1
 134.515625 247.8359375 l 1,31,-1
 202.1640625 315.484375 l 1,24,-1
221.30078125 269.291015625 m 1,32,-1
 180.7109375 228.701171875 l 1,33,-1
 180.7109375 171.30078125 l 1,34,-1
 221.30078125 130.7109375 l 1,35,-1
 278.69921875 130.7109375 l 1,36,-1
 319.2890625 171.30078125 l 1,37,-1
 319.2890625 228.69921875 l 1,38,-1
 278.69921875 269.2890625 l 1,39,-1
 278.69921875 269.291015625 l 1,40,-1
 221.30078125 269.291015625 l 1,32,-1
EndSplineSet
EndChar

StartChar: parenleft
Encoding: 40 40 2
Width: 500
Flags: W
LayerCount: 2
Fore
SplineSet
294.552734375 500.259765625 m 1,0,1
 362.888392857 500.263950936 362.888392857 500.263950936 390.22265625 500.259765625 c 1,2,-1
 403.755859375 486.728515625 l 1,3,-1
 403.755859375 467.595703125 l 1,4,-1
 390.224609375 454.064453125 l 1,5,-1
 313.685546875 454.064453125 l 1,6,-1
 273.09765625 413.4765625 l 1,7,-1
 273.09765625 -13.478515625 l 1,8,-1
 313.685546875 -54.064453125 l 1,9,-1
 390.22265625 -54.064453125 l 1,10,-1
 403.75390625 -67.595703125 l 1,11,-1
 403.75390625 -86.728515625 l 1,12,-1
 390.224609375 -100.259765625 l 1,13,-1
 294.552734375 -100.259765625 l 1,14,-1
 226.904296875 -32.609375 l 1,15,-1
 226.904296875 432.611328125 l 1,16,-1
 294.552734375 500.259765625 l 1,0,1
EndSplineSet
EndChar

StartChar: parenright
Encoding: 41 41 3
Width: 500
Flags: W
LayerCount: 2
Fore
SplineSet
109.775390625 500.259765625 m 1,0,-1
 205.447265625 500.258789062 l 1,1,-1
 273.094726562 432.610351562 l 1,2,-1
 273.094726562 -32.611328125 l 1,3,-1
 205.447265625 -100.258789062 l 1,4,5
 137.111009254 -100.262974282 137.111009254 -100.262974282 109.77734375 -100.258789062 c 1,6,-1
 96.2451171875 -86.728515625 l 1,7,-1
 96.2451171875 -67.5947265625 l 1,8,-1
 109.775390625 -54.0654296875 l 1,9,-1
 186.314453125 -54.0654296875 l 1,10,-1
 226.90234375 -13.4765625 l 1,11,-1
 226.90234375 413.477539062 l 1,12,-1
 186.314453125 454.06640625 l 1,13,-1
 109.77734375 454.06640625 l 1,14,-1
 96.24609375 467.595703125 l 1,15,-1
 96.24609375 486.73046875 l 1,16,-1
 109.775390625 500.259765625 l 1,0,-1
EndSplineSet
EndChar

StartChar: l
Encoding: 108 108 4
Width: 500
Flags: W
AnchorPoint: "vowel" 250 200 basechar 0
LayerCount: 2
Fore
SplineSet
163.896484375 407.873046875 m 1,0,-1
 183.030273438 407.875 l 1,1,-1
 196.559570312 394.344726562 l 1,2,-1
 196.559570312 375.209960938 l 1,3,-1
 183.030273438 361.6796875 l 1,4,-1
 88.3203125 266.969726562 l 1,5,-1
 88.3203125 133.030273438 l 1,6,-1
 183.030273438 38.3203125 l 1,7,-1
 316.969726562 38.3203125 l 1,8,-1
 411.6796875 133.030273438 l 1,9,-1
 411.6796875 266.96875 l 1,10,-1
 316.969726562 361.678710938 l 1,11,-1
 303.440429688 375.208984375 l 1,12,-1
 303.440429688 394.34375 l 1,13,-1
 316.969726562 407.874023438 l 1,14,-1
 336.102539062 407.874023438 l 1,15,-1
 349.6328125 394.34375 l 1,16,-1
 457.873046875 286.103515625 l 1,17,-1
 457.873046875 113.896484375 l 1,18,-1
 336.103515625 -7.8740234375 l 1,19,-1
 163.897460938 -7.8740234375 l 1,20,-1
 42.126953125 113.896484375 l 1,21,-1
 42.126953125 286.102539062 l 1,22,-1
 150.3671875 394.342773438 l 1,23,-1
 163.896484375 407.873046875 l 1,0,-1
128.91015625 353.754882812 m 1,24,-1
 403.75390625 78.9111328125 l 1,25,-1
 403.752929688 59.7763671875 l 1,26,-1
 390.224609375 46.2470703125 l 1,27,-1
 371.088867188 46.2451171875 l 1,28,-1
 96.24609375 321.088867188 l 1,29,-1
 96.2470703125 340.223632812 l 1,30,-1
 109.776367188 353.752929688 l 1,31,-1
 128.91015625 353.754882812 l 1,24,-1
EndSplineSet
EndChar

StartChar: Y
Encoding: 89 89 5
Width: 500
Flags: W
AnchorPoint: "vowel" 250 200 basechar 0
LayerCount: 2
Fore
SplineSet
42.126953125 113.896484375 m 1,0,-1
 42.1259765625 133.030273438 l 1,1,-1
 55.65625 146.559570312 l 1,2,-1
 74.7900390625 146.559570312 l 1,3,-1
 88.3203125 133.030273438 l 1,4,-1
 183.030273438 38.3203125 l 1,5,-1
 316.969726562 38.3203125 l 1,6,-1
 411.6796875 133.030273438 l 1,7,-1
 411.6796875 266.967773438 l 1,8,-1
 316.969726562 361.677734375 l 1,9,-1
 183.03125 361.677734375 l 1,10,-1
 88.3212890625 266.967773438 l 1,11,-1
 74.791015625 253.438476562 l 1,12,-1
 55.65625 253.438476562 l 1,13,-1
 42.1259765625 266.967773438 l 1,14,-1
 42.1259765625 286.1015625 l 1,15,-1
 55.65625 299.631835938 l 1,16,-1
 163.896484375 407.872070312 l 1,17,-1
 336.103515625 407.872070312 l 1,18,-1
 457.874023438 286.102539062 l 1,19,-1
 457.874023438 113.897460938 l 1,20,-1
 336.103515625 -7.873046875 l 1,21,-1
 163.897460938 -7.873046875 l 1,22,-1
 55.6572265625 100.3671875 l 1,23,-1
 42.126953125 113.896484375 l 1,0,-1
128.91015625 353.754882812 m 1,24,-1
 403.75390625 78.9111328125 l 1,25,-1
 403.752929688 59.7763671875 l 1,26,-1
 390.224609375 46.2470703125 l 1,27,-1
 371.088867188 46.2451171875 l 1,28,-1
 96.24609375 321.088867188 l 1,29,-1
 96.2470703125 340.223632812 l 1,30,-1
 109.776367188 353.752929688 l 1,31,-1
 128.91015625 353.754882812 l 1,24,-1
202.1640625 315.484375 m 1,32,-1
 297.8359375 315.484375 l 1,33,-1
 365.484375 247.8359375 l 1,34,-1
 365.484375 152.1640625 l 1,35,-1
 297.8359375 84.515625 l 1,36,-1
 202.1640625 84.515625 l 1,37,-1
 134.515625 152.1640625 l 1,38,-1
 134.515625 247.8359375 l 1,39,-1
 202.1640625 315.484375 l 1,32,-1
221.30078125 269.291015625 m 1,40,-1
 180.7109375 228.701171875 l 1,41,-1
 180.7109375 171.30078125 l 1,42,-1
 221.30078125 130.7109375 l 1,43,-1
 278.69921875 130.7109375 l 1,44,-1
 319.2890625 171.30078125 l 1,45,-1
 319.2890625 228.69921875 l 1,46,-1
 278.69921875 269.2890625 l 1,47,-1
 278.69921875 269.291015625 l 1,48,-1
 221.30078125 269.291015625 l 1,40,-1
EndSplineSet
EndChar

StartChar: q
Encoding: 113 113 6
Width: 500
Flags: W
AnchorPoint: "vowel" 250 200 basechar 0
LayerCount: 2
Fore
SplineSet
42.126953125 113.896484375 m 1,0,-1
 42.1259765625 133.030273438 l 1,1,-1
 55.65625 146.559570312 l 1,2,-1
 74.7900390625 146.559570312 l 1,3,-1
 88.3203125 133.030273438 l 1,4,-1
 183.030273438 38.3203125 l 1,5,-1
 316.969726562 38.3203125 l 1,6,-1
 411.6796875 133.030273438 l 1,7,-1
 411.6796875 266.967773438 l 1,8,-1
 316.969726562 361.677734375 l 1,9,-1
 183.03125 361.677734375 l 1,10,-1
 88.3212890625 266.967773438 l 1,11,-1
 74.791015625 253.438476562 l 1,12,-1
 55.65625 253.438476562 l 1,13,-1
 42.1259765625 266.967773438 l 1,14,-1
 42.1259765625 286.1015625 l 1,15,-1
 55.65625 299.631835938 l 1,16,-1
 163.896484375 407.872070312 l 1,17,-1
 336.103515625 407.872070312 l 1,18,-1
 457.874023438 286.102539062 l 1,19,-1
 457.874023438 113.897460938 l 1,20,-1
 336.103515625 -7.873046875 l 1,21,-1
 163.897460938 -7.873046875 l 1,22,-1
 55.6572265625 100.3671875 l 1,23,-1
 42.126953125 113.896484375 l 1,0,-1
EndSplineSet
EndChar

StartChar: e
Encoding: 101 101 7
Width: 0
GlyphClass: 4
Flags: W
AnchorPoint: "vowel" -250 200 mark 0
LayerCount: 2
Fore
SplineSet
-259.568359375 361.678710938 m 1,0,-1
 -403.75390625 505.865234375 l 1,1,-1
 -403.752929688 524.999023438 l 1,2,-1
 -390.223632812 538.529296875 l 1,3,-1
 -371.088867188 538.530273438 l 1,4,-1
 -226.903320312 394.34375 l 1,5,-1
 -226.903320312 375.208007812 l 1,6,-1
 -240.431640625 361.678710938 l 1,7,-1
 -259.568359375 361.678710938 l 1,0,-1
EndSplineSet
EndChar

StartChar: d
Encoding: 100 100 8
Width: 500
Flags: W
AnchorPoint: "vowel" 250 200 basechar 0
LayerCount: 2
Fore
SplineSet
163.896484375 407.873046875 m 1,0,-1
 183.030273438 407.875 l 1,1,-1
 196.559570312 394.344726562 l 1,2,-1
 196.559570312 375.209960938 l 1,3,-1
 183.030273438 361.6796875 l 1,4,-1
 88.3203125 266.969726562 l 1,5,-1
 88.3203125 133.030273438 l 1,6,-1
 183.030273438 38.3203125 l 1,7,-1
 316.969726562 38.3203125 l 1,8,-1
 411.6796875 133.030273438 l 1,9,-1
 411.6796875 266.96875 l 1,10,-1
 316.969726562 361.678710938 l 1,11,-1
 303.440429688 375.208984375 l 1,12,-1
 303.440429688 394.34375 l 1,13,-1
 316.969726562 407.874023438 l 1,14,-1
 336.102539062 407.874023438 l 1,15,-1
 349.6328125 394.34375 l 1,16,-1
 457.873046875 286.103515625 l 1,17,-1
 457.873046875 113.896484375 l 1,18,-1
 336.103515625 -7.8740234375 l 1,19,-1
 163.897460938 -7.8740234375 l 1,20,-1
 42.126953125 113.896484375 l 1,21,-1
 42.126953125 286.102539062 l 1,22,-1
 150.3671875 394.342773438 l 1,23,-1
 163.896484375 407.873046875 l 1,0,-1
128.91015625 353.754882812 m 1,24,-1
 403.75390625 78.9111328125 l 1,25,-1
 403.752929688 59.7763671875 l 1,26,-1
 390.224609375 46.2470703125 l 1,27,-1
 371.088867188 46.2451171875 l 1,28,-1
 96.24609375 321.088867188 l 1,29,-1
 96.2470703125 340.223632812 l 1,30,-1
 109.776367188 353.752929688 l 1,31,-1
 128.91015625 353.754882812 l 1,24,-1
EndSplineSet
EndChar

StartChar: p
Encoding: 112 112 9
Width: 500
Flags: W
AnchorPoint: "vowel" 250 200 basechar 0
LayerCount: 2
Fore
SplineSet
457.873046875 286.103515625 m 1,0,-1
 457.875 266.969726562 l 1,1,-1
 444.344726562 253.440429688 l 1,2,-1
 425.209960938 253.440429688 l 1,3,-1
 411.6796875 266.969726562 l 1,4,-1
 316.969726562 361.6796875 l 1,5,-1
 183.030273438 361.6796875 l 1,6,-1
 88.3203125 266.969726562 l 1,7,-1
 88.3203125 133.030273438 l 1,8,-1
 183.030273438 38.3203125 l 1,9,-1
 316.969726562 38.3203125 l 1,10,-1
 411.6796875 133.030273438 l 1,11,-1
 425.209960938 146.559570312 l 1,12,-1
 444.344726562 146.559570312 l 1,13,-1
 457.875 133.030273438 l 1,14,-1
 457.875 113.897460938 l 1,15,-1
 444.344726562 100.3671875 l 1,16,-1
 336.10546875 -7.873046875 l 1,17,-1
 163.897460938 -7.873046875 l 1,18,-1
 42.126953125 113.896484375 l 1,19,-1
 42.126953125 286.102539062 l 1,20,-1
 163.897460938 407.873046875 l 1,21,-1
 336.102539062 407.873046875 l 1,22,-1
 444.342773438 299.6328125 l 1,23,-1
 457.873046875 286.103515625 l 1,0,-1
EndSplineSet
EndChar

StartChar: X
Encoding: 88 88 10
Width: 500
Flags: W
AnchorPoint: "vowel" 250 200 basechar 0
LayerCount: 2
Fore
SplineSet
163.896484375 -7.873046875 m 1,0,-1
 150.366210938 5.65625 l 1,1,-1
 150.366210938 24.7900390625 l 1,2,-1
 163.896484375 38.3203125 l 1,3,-1
 316.970703125 38.3203125 l 1,4,-1
 411.678710938 133.028320312 l 1,5,-1
 411.678710938 266.969726562 l 1,6,-1
 316.970703125 361.677734375 l 1,7,-1
 183.029296875 361.677734375 l 1,8,-1
 88.3212890625 266.969726562 l 1,9,-1
 88.3212890625 113.896484375 l 1,10,-1
 74.791015625 100.366210938 l 1,11,-1
 55.6572265625 100.366210938 l 1,12,-1
 42.126953125 113.896484375 l 1,13,-1
 42.126953125 286.103515625 l 1,14,-1
 163.896484375 407.873046875 l 1,15,-1
 336.103515625 407.873046875 l 1,16,-1
 457.873046875 286.103515625 l 1,17,-1
 457.873046875 113.896484375 l 1,18,-1
 336.103515625 -7.873046875 l 1,19,-1
 163.896484375 -7.873046875 l 1,0,-1
128.91015625 353.754882812 m 1,20,-1
 403.75390625 78.9111328125 l 1,21,-1
 403.752929688 59.7763671875 l 1,22,-1
 390.224609375 46.2470703125 l 1,23,-1
 371.088867188 46.2451171875 l 1,24,-1
 96.24609375 321.088867188 l 1,25,-1
 96.2470703125 340.223632812 l 1,26,-1
 109.776367188 353.752929688 l 1,27,-1
 128.91015625 353.754882812 l 1,20,-1
EndSplineSet
EndChar

StartChar: k
Encoding: 107 107 11
Width: 500
Flags: W
AnchorPoint: "vowel" 250 200 basechar 0
LayerCount: 2
Fore
SplineSet
42.126953125 286.103515625 m 1,0,-1
 55.6572265625 299.633789062 l 1,1,-1
 74.791015625 299.633789062 l 1,2,-1
 88.3212890625 286.103515625 l 1,3,-1
 88.3212890625 133.030273438 l 1,4,-1
 183.029296875 38.3212890625 l 1,5,-1
 316.969726562 38.3212890625 l 1,6,-1
 411.677734375 133.029296875 l 1,7,-1
 411.677734375 266.970703125 l 1,8,-1
 316.969726562 361.678710938 l 1,9,-1
 163.896484375 361.678710938 l 1,10,-1
 150.366210938 375.208984375 l 1,11,-1
 150.366210938 394.342773438 l 1,12,-1
 163.896484375 407.873046875 l 1,13,-1
 336.103515625 407.873046875 l 1,14,-1
 457.873046875 286.103515625 l 1,15,-1
 457.873046875 113.896484375 l 1,16,-1
 336.103515625 -7.873046875 l 1,17,-1
 163.896484375 -7.873046875 l 1,18,-1
 42.126953125 113.896484375 l 1,19,-1
 42.126953125 286.103515625 l 1,0,-1
EndSplineSet
EndChar

StartChar: braceright
Encoding: 125 125 12
Width: 500
Flags: W
LayerCount: 2
Fore
SplineSet
109.775390625 500.259765625 m 1,0,-1
 205.447265625 500.259765625 l 1,1,-1
 273.095703125 432.611328125 l 1,2,-1
 273.096679688 263.684570312 l 1,3,-1
 313.684570312 223.096679688 l 1,4,-1
 390.22265625 223.096679688 l 1,5,-1
 403.752929688 209.56640625 l 1,6,-1
 403.752929688 190.431640625 l 1,7,-1
 390.224609375 176.90234375 l 1,8,-1
 313.684570312 176.90234375 l 1,9,-1
 273.096679688 136.314453125 l 1,10,-1
 273.096679688 32.716796875 l 1,11,-1
 273.094726562 -32.611328125 l 1,12,-1
 205.447265625 -100.259765625 l 1,13,-1
 128.912109375 -100.26171875 l 1,14,-1
 109.77734375 -100.258789062 l 1,15,-1
 96.2451171875 -86.728515625 l 1,16,-1
 96.2451171875 -67.5947265625 l 1,17,-1
 109.775390625 -54.0654296875 l 1,18,-1
 186.314453125 -54.0654296875 l 1,19,-1
 226.90234375 -13.4765625 l 1,20,-1
 226.90234375 13.58203125 l 1,21,-1
 226.904296875 109.25390625 l 1,22,-1
 226.904296875 155.447265625 l 1,23,-1
 271.45703125 200 l 1,24,-1
 226.904296875 244.551757812 l 1,25,-1
 226.90234375 413.477539062 l 1,26,-1
 186.314453125 454.06640625 l 1,27,-1
 109.77734375 454.06640625 l 1,28,-1
 96.24609375 467.595703125 l 1,29,-1
 96.24609375 486.73046875 l 1,30,-1
 109.775390625 500.259765625 l 1,0,-1
EndSplineSet
EndChar

StartChar: f
Encoding: 102 102 13
Width: 500
Flags: W
AnchorPoint: "vowel" 250 200 basechar 0
LayerCount: 2
Fore
SplineSet
336.103515625 -7.873046875 m 1,0,-1
 316.969726562 -7.8740234375 l 1,1,-1
 303.440429688 5.6552734375 l 1,2,-1
 303.440429688 24.7900390625 l 1,3,-1
 316.969726562 38.3203125 l 1,4,-1
 411.6796875 133.030273438 l 1,5,-1
 411.6796875 266.969726562 l 1,6,-1
 316.969726562 361.6796875 l 1,7,-1
 183.03125 361.6796875 l 1,8,-1
 88.3212890625 266.969726562 l 1,9,-1
 88.3212890625 133.030273438 l 1,10,-1
 183.03125 38.3203125 l 1,11,-1
 196.560546875 24.7900390625 l 1,12,-1
 196.560546875 5.65625 l 1,13,-1
 183.03125 -7.8740234375 l 1,14,-1
 163.897460938 -7.8740234375 l 1,15,-1
 150.3671875 5.6552734375 l 1,16,-1
 42.126953125 113.89453125 l 1,17,-1
 42.126953125 286.102539062 l 1,18,-1
 163.897460938 407.873046875 l 1,19,-1
 336.102539062 407.873046875 l 1,20,-1
 457.873046875 286.102539062 l 1,21,-1
 457.873046875 113.897460938 l 1,22,-1
 349.6328125 5.6572265625 l 1,23,-1
 336.103515625 -7.873046875 l 1,0,-1
EndSplineSet
EndChar

StartChar: r
Encoding: 114 114 14
Width: 500
Flags: W
AnchorPoint: "vowel" 250 200 basechar 0
LayerCount: 2
Fore
SplineSet
163.896484375 407.873046875 m 1,0,-1
 336.103515625 407.873046875 l 1,1,-1
 336.103515625 407.87109375 l 1,2,-1
 444.34375 299.6328125 l 1,3,-1
 457.873046875 286.103515625 l 1,4,-1
 457.875 266.970703125 l 1,5,-1
 457.873046875 266.96875 l 1,6,-1
 457.873046875 133.03125 l 1,7,-1
 457.875 133.029296875 l 1,8,-1
 457.875 113.896484375 l 1,9,-1
 457.873046875 113.896484375 l 1,10,-1
 444.345703125 100.3671875 l 1,11,-1
 336.103515625 -7.873046875 l 1,12,-1
 163.896484375 -7.873046875 l 1,13,-1
 55.65625 100.3671875 l 1,14,-1
 42.126953125 113.896484375 l 1,15,-1
 42.126953125 133.029296875 l 1,16,-1
 42.126953125 266.96875 l 1,17,-1
 42.126953125 286.1015625 l 1,18,-1
 42.126953125 286.103515625 l 1,19,-1
 55.65625 299.6328125 l 1,20,-1
 163.896484375 407.87109375 l 1,21,-1
 163.896484375 407.873046875 l 1,0,-1
183.03125 361.677734375 m 1,22,-1
 88.3203125 266.970703125 l 1,23,-1
 88.3203125 266.96875 l 1,24,-1
 88.3203125 133.029296875 l 1,25,-1
 183.029296875 38.3203125 l 1,26,-1
 316.970703125 38.3203125 l 1,27,-1
 411.6796875 133.029296875 l 1,28,-1
 411.6796875 266.96875 l 1,29,-1
 411.6796875 266.970703125 l 1,30,-1
 316.970703125 361.677734375 l 1,31,-1
 183.03125 361.677734375 l 1,22,-1
EndSplineSet
EndChar

StartChar: s
Encoding: 115 115 15
Width: 500
Flags: W
AnchorPoint: "vowel" 250 200 basechar 0
LayerCount: 2
Fore
SplineSet
336.103515625 407.873046875 m 1,0,-1
 349.633789062 394.342773438 l 1,1,-1
 349.633789062 375.208984375 l 1,2,-1
 336.103515625 361.678710938 l 1,3,-1
 183.029296875 361.678710938 l 1,4,-1
 88.3212890625 266.970703125 l 1,5,-1
 88.3212890625 133.030273438 l 1,6,-1
 183.029296875 38.322265625 l 1,7,-1
 316.970703125 38.322265625 l 1,8,-1
 411.678710938 133.030273438 l 1,9,-1
 411.678710938 286.103515625 l 1,10,-1
 425.208984375 299.633789062 l 1,11,-1
 444.342773438 299.633789062 l 1,12,-1
 457.873046875 286.103515625 l 1,13,-1
 457.873046875 113.896484375 l 1,14,-1
 336.103515625 -7.873046875 l 1,15,-1
 163.896484375 -7.873046875 l 1,16,-1
 42.126953125 113.896484375 l 1,17,-1
 42.126953125 286.103515625 l 1,18,-1
 163.896484375 407.873046875 l 1,19,-1
 336.103515625 407.873046875 l 1,0,-1
EndSplineSet
EndChar

StartChar: g
Encoding: 103 103 16
Width: 500
Flags: W
AnchorPoint: "vowel" 250 200 basechar 0
LayerCount: 2
Fore
SplineSet
42.126953125 286.103515625 m 1,0,-1
 55.6572265625 299.633789062 l 1,1,-1
 74.791015625 299.633789062 l 1,2,-1
 88.3212890625 286.103515625 l 1,3,-1
 88.3212890625 133.030273438 l 1,4,-1
 183.029296875 38.3212890625 l 1,5,-1
 316.969726562 38.3212890625 l 1,6,-1
 411.677734375 133.029296875 l 1,7,-1
 411.677734375 266.970703125 l 1,8,-1
 316.969726562 361.678710938 l 1,9,-1
 163.896484375 361.678710938 l 1,10,-1
 150.366210938 375.208984375 l 1,11,-1
 150.366210938 394.342773438 l 1,12,-1
 163.896484375 407.873046875 l 1,13,-1
 336.103515625 407.873046875 l 1,14,-1
 457.873046875 286.103515625 l 1,15,-1
 457.873046875 113.896484375 l 1,16,-1
 336.103515625 -7.873046875 l 1,17,-1
 163.896484375 -7.873046875 l 1,18,-1
 42.126953125 113.896484375 l 1,19,-1
 42.126953125 286.103515625 l 1,0,-1
128.91015625 353.754882812 m 1,20,-1
 403.75390625 78.9111328125 l 1,21,-1
 403.752929688 59.7763671875 l 1,22,-1
 390.224609375 46.2470703125 l 1,23,-1
 371.088867188 46.2451171875 l 1,24,-1
 96.24609375 321.088867188 l 1,25,-1
 96.2470703125 340.223632812 l 1,26,-1
 109.776367188 353.752929688 l 1,27,-1
 128.91015625 353.754882812 l 1,20,-1
EndSplineSet
EndChar

StartChar: asciitilde
Encoding: 126 126 17
Width: 500
Flags: W
LayerCount: 2
Fore
SplineSet
163.896484375 407.873046875 m 1,0,-1
 183.03125 407.873046875 l 1,1,-1
 196.560546875 394.345703125 l 1,2,-1
 196.560546875 375.2109375 l 1,3,-1
 183.03125 361.6796875 l 1,4,-1
 183.029296875 361.6796875 l 1,5,-1
 152.0078125 330.658203125 l 1,6,-1
 380.658203125 102.0078125 l 1,7,-1
 411.6796875 133.029296875 l 1,8,-1
 411.6796875 266.96875 l 1,9,-1
 316.970703125 361.6796875 l 1,10,-1
 303.439453125 375.208984375 l 1,11,-1
 303.439453125 394.34375 l 1,12,-1
 316.970703125 407.873046875 l 1,13,-1
 336.103515625 407.873046875 l 1,14,-1
 349.6328125 394.34375 l 1,15,-1
 457.873046875 286.103515625 l 1,16,-1
 457.873046875 113.896484375 l 1,17,-1
 403.75390625 59.77734375 l 1,18,-1
 403.75390625 59.775390625 l 1,19,-1
 390.224609375 46.24609375 l 1,20,-1
 390.22265625 46.24609375 l 1,21,-1
 349.6328125 5.65625 l 1,22,-1
 336.103515625 -7.873046875 l 1,23,-1
 316.970703125 -7.873046875 l 1,24,-1
 303.439453125 5.654296875 l 1,25,-1
 303.439453125 24.7890625 l 1,26,-1
 316.970703125 38.3203125 l 1,27,-1
 347.9921875 69.341796875 l 1,28,-1
 119.341796875 297.9921875 l 1,29,-1
 88.3203125 266.970703125 l 1,30,-1
 88.3203125 133.029296875 l 1,31,-1
 183.029296875 38.3203125 l 1,32,-1
 183.03125 38.3203125 l 1,33,-1
 196.560546875 24.7890625 l 1,34,-1
 196.560546875 5.65625 l 1,35,-1
 183.03125 -7.873046875 l 1,36,-1
 163.896484375 -7.873046875 l 1,37,-1
 150.3671875 5.654296875 l 1,38,-1
 42.126953125 113.89453125 l 1,39,-1
 42.126953125 113.896484375 l 1,40,-1
 42.126953125 286.103515625 l 1,41,-1
 96.24609375 340.22265625 l 1,42,-1
 96.24609375 340.224609375 l 1,43,-1
 109.775390625 353.75390625 l 1,44,-1
 109.77734375 353.75390625 l 1,45,-1
 150.3671875 394.34375 l 1,46,-1
 163.896484375 407.873046875 l 1,0,-1
EndSplineSet
EndChar

StartChar: j
Encoding: 106 106 18
Width: 500
Flags: W
AnchorPoint: "vowel" 250 200 basechar 0
LayerCount: 2
Fore
SplineSet
336.103515625 407.873046875 m 1,0,-1
 349.633789062 394.342773438 l 1,1,-1
 349.633789062 375.208984375 l 1,2,-1
 336.103515625 361.678710938 l 1,3,-1
 183.029296875 361.678710938 l 1,4,-1
 88.3212890625 266.970703125 l 1,5,-1
 88.3212890625 133.030273438 l 1,6,-1
 183.029296875 38.322265625 l 1,7,-1
 316.970703125 38.322265625 l 1,8,-1
 411.678710938 133.030273438 l 1,9,-1
 411.678710938 286.103515625 l 1,10,-1
 425.208984375 299.633789062 l 1,11,-1
 444.342773438 299.633789062 l 1,12,-1
 457.873046875 286.103515625 l 1,13,-1
 457.873046875 113.896484375 l 1,14,-1
 336.103515625 -7.873046875 l 1,15,-1
 163.896484375 -7.873046875 l 1,16,-1
 42.126953125 113.896484375 l 1,17,-1
 42.126953125 286.103515625 l 1,18,-1
 163.896484375 407.873046875 l 1,19,-1
 336.103515625 407.873046875 l 1,0,-1
128.91015625 353.754882812 m 1,20,-1
 403.75390625 78.9111328125 l 1,21,-1
 403.752929688 59.7763671875 l 1,22,-1
 390.224609375 46.2470703125 l 1,23,-1
 371.088867188 46.2451171875 l 1,24,-1
 96.24609375 321.088867188 l 1,25,-1
 96.2470703125 340.223632812 l 1,26,-1
 109.776367188 353.752929688 l 1,27,-1
 128.91015625 353.754882812 l 1,20,-1
202.1640625 315.484375 m 1,28,-1
 297.8359375 315.484375 l 1,29,-1
 365.484375 247.8359375 l 1,30,-1
 365.484375 152.1640625 l 1,31,-1
 297.8359375 84.515625 l 1,32,-1
 202.1640625 84.515625 l 1,33,-1
 134.515625 152.1640625 l 1,34,-1
 134.515625 247.8359375 l 1,35,-1
 202.1640625 315.484375 l 1,28,-1
221.30078125 269.291015625 m 1,36,-1
 180.7109375 228.701171875 l 1,37,-1
 180.7109375 171.30078125 l 1,38,-1
 221.30078125 130.7109375 l 1,39,-1
 278.69921875 130.7109375 l 1,40,-1
 319.2890625 171.30078125 l 1,41,-1
 319.2890625 228.69921875 l 1,42,-1
 278.69921875 269.2890625 l 1,43,-1
 278.69921875 269.291015625 l 1,44,-1
 221.30078125 269.291015625 l 1,36,-1
EndSplineSet
EndChar

StartChar: c
Encoding: 99 99 19
Width: 500
Flags: W
AnchorPoint: "vowel" 250 200 basechar 0
LayerCount: 2
Fore
SplineSet
42.126953125 113.896484375 m 1,0,-1
 42.1259765625 133.030273438 l 1,1,-1
 55.65625 146.559570312 l 1,2,-1
 74.7900390625 146.559570312 l 1,3,-1
 88.3203125 133.030273438 l 1,4,-1
 183.030273438 38.3203125 l 1,5,-1
 316.969726562 38.3203125 l 1,6,-1
 411.6796875 133.030273438 l 1,7,-1
 411.6796875 266.967773438 l 1,8,-1
 316.969726562 361.677734375 l 1,9,-1
 183.03125 361.677734375 l 1,10,-1
 88.3212890625 266.967773438 l 1,11,-1
 74.791015625 253.438476562 l 1,12,-1
 55.65625 253.438476562 l 1,13,-1
 42.1259765625 266.967773438 l 1,14,-1
 42.1259765625 286.1015625 l 1,15,-1
 55.65625 299.631835938 l 1,16,-1
 163.896484375 407.872070312 l 1,17,-1
 336.103515625 407.872070312 l 1,18,-1
 457.874023438 286.102539062 l 1,19,-1
 457.874023438 113.897460938 l 1,20,-1
 336.103515625 -7.873046875 l 1,21,-1
 163.897460938 -7.873046875 l 1,22,-1
 55.6572265625 100.3671875 l 1,23,-1
 42.126953125 113.896484375 l 1,0,-1
128.91015625 353.754882812 m 1,24,-1
 403.75390625 78.9111328125 l 1,25,-1
 403.752929688 59.7763671875 l 1,26,-1
 390.224609375 46.2470703125 l 1,27,-1
 371.088867188 46.2451171875 l 1,28,-1
 96.24609375 321.088867188 l 1,29,-1
 96.2470703125 340.223632812 l 1,30,-1
 109.776367188 353.752929688 l 1,31,-1
 128.91015625 353.754882812 l 1,24,-1
EndSplineSet
EndChar

StartChar: w
Encoding: 119 119 20
Width: 0
GlyphClass: 4
Flags: W
AnchorPoint: "vowel" -250 200 mark 0
LayerCount: 2
Fore
SplineSet
-444.34375 -38.21484375 m 1,0,-1
 -425.209960938 -38.2158203125 l 1,1,-1
 -411.6796875 -51.74609375 l 1,2,-1
 -316.969726562 -146.456054688 l 1,3,-1
 -183.03125 -146.456054688 l 1,4,-1
 -88.3212890625 -51.7470703125 l 1,5,-1
 -74.7900390625 -38.21484375 l 1,6,-1
 -55.654296875 -38.21484375 l 1,7,-1
 -42.126953125 -51.7451171875 l 1,8,-1
 -42.126953125 -70.87890625 l 1,9,-1
 -55.654296875 -84.4091796875 l 1,10,-1
 -163.896484375 -192.649414062 l 1,11,-1
 -336.102539062 -192.649414062 l 1,12,-1
 -444.342773438 -84.4091796875 l 1,13,-1
 -457.873046875 -70.87890625 l 1,14,-1
 -457.873046875 -51.7470703125 l 1,15,-1
 -444.34375 -38.21484375 l 1,0,-1
EndSplineSet
EndChar

StartChar: n
Encoding: 110 110 21
Width: 500
Flags: W
AnchorPoint: "vowel" 250 200 basechar 0
LayerCount: 2
Fore
SplineSet
457.873046875 113.896484375 m 1,0,-1
 444.342773438 100.366210938 l 1,1,-1
 425.208984375 100.366210938 l 1,2,-1
 411.678710938 113.896484375 l 1,3,-1
 411.678710938 266.970703125 l 1,4,-1
 316.970703125 361.678710938 l 1,5,-1
 183.029296875 361.678710938 l 1,6,-1
 88.3212890625 266.970703125 l 1,7,-1
 88.3212890625 133.030273438 l 1,8,-1
 183.030273438 38.3212890625 l 1,9,-1
 336.103515625 38.3212890625 l 1,10,-1
 349.633789062 24.791015625 l 1,11,-1
 349.633789062 5.6572265625 l 1,12,-1
 336.103515625 -7.873046875 l 1,13,-1
 163.896484375 -7.873046875 l 1,14,-1
 42.126953125 113.896484375 l 1,15,-1
 42.126953125 286.103515625 l 1,16,-1
 163.896484375 407.873046875 l 1,17,-1
 336.103515625 407.873046875 l 1,18,-1
 457.873046875 286.103515625 l 1,19,-1
 457.873046875 113.896484375 l 1,0,-1
128.91015625 353.754882812 m 1,20,-1
 403.75390625 78.9111328125 l 1,21,-1
 403.752929688 59.7763671875 l 1,22,-1
 390.224609375 46.2470703125 l 1,23,-1
 371.088867188 46.2451171875 l 1,24,-1
 96.24609375 321.088867188 l 1,25,-1
 96.2470703125 340.223632812 l 1,26,-1
 109.776367188 353.752929688 l 1,27,-1
 128.91015625 353.754882812 l 1,20,-1
EndSplineSet
EndChar

StartChar: z
Encoding: 122 122 22
Width: 500
Flags: W
AnchorPoint: "vowel" 250 200 basechar 0
LayerCount: 2
Fore
SplineSet
336.103515625 407.873046875 m 1,0,-1
 349.633789062 394.342773438 l 1,1,-1
 349.633789062 375.208984375 l 1,2,-1
 336.103515625 361.678710938 l 1,3,-1
 183.029296875 361.678710938 l 1,4,-1
 88.3212890625 266.970703125 l 1,5,-1
 88.3212890625 133.030273438 l 1,6,-1
 183.029296875 38.322265625 l 1,7,-1
 316.970703125 38.322265625 l 1,8,-1
 411.678710938 133.030273438 l 1,9,-1
 411.678710938 286.103515625 l 1,10,-1
 425.208984375 299.633789062 l 1,11,-1
 444.342773438 299.633789062 l 1,12,-1
 457.873046875 286.103515625 l 1,13,-1
 457.873046875 113.896484375 l 1,14,-1
 336.103515625 -7.873046875 l 1,15,-1
 163.896484375 -7.873046875 l 1,16,-1
 42.126953125 113.896484375 l 1,17,-1
 42.126953125 286.103515625 l 1,18,-1
 163.896484375 407.873046875 l 1,19,-1
 336.103515625 407.873046875 l 1,0,-1
128.91015625 353.754882812 m 1,20,-1
 403.75390625 78.9111328125 l 1,21,-1
 403.752929688 59.7763671875 l 1,22,-1
 390.224609375 46.2470703125 l 1,23,-1
 371.088867188 46.2451171875 l 1,24,-1
 96.24609375 321.088867188 l 1,25,-1
 96.2470703125 340.223632812 l 1,26,-1
 109.776367188 353.752929688 l 1,27,-1
 128.91015625 353.754882812 l 1,20,-1
EndSplineSet
EndChar

StartChar: m
Encoding: 109 109 23
Width: 500
Flags: W
AnchorPoint: "vowel" 250 200 basechar 0
LayerCount: 2
Fore
SplineSet
457.873046875 113.896484375 m 1,0,-1
 444.342773438 100.366210938 l 1,1,-1
 425.208984375 100.366210938 l 1,2,-1
 411.678710938 113.896484375 l 1,3,-1
 411.678710938 266.970703125 l 1,4,-1
 316.970703125 361.678710938 l 1,5,-1
 183.029296875 361.678710938 l 1,6,-1
 88.3212890625 266.970703125 l 1,7,-1
 88.3212890625 133.030273438 l 1,8,-1
 183.030273438 38.3212890625 l 1,9,-1
 336.103515625 38.3212890625 l 1,10,-1
 349.633789062 24.791015625 l 1,11,-1
 349.633789062 5.6572265625 l 1,12,-1
 336.103515625 -7.873046875 l 1,13,-1
 163.896484375 -7.873046875 l 1,14,-1
 42.126953125 113.896484375 l 1,15,-1
 42.126953125 286.103515625 l 1,16,-1
 163.896484375 407.873046875 l 1,17,-1
 336.103515625 407.873046875 l 1,18,-1
 457.873046875 286.103515625 l 1,19,-1
 457.873046875 113.896484375 l 1,0,-1
EndSplineSet
EndChar

StartChar: v
Encoding: 118 118 24
Width: 500
Flags: W
AnchorPoint: "vowel" 250 200 basechar 0
LayerCount: 2
Fore
SplineSet
336.103515625 -7.873046875 m 1,0,-1
 316.969726562 -7.8740234375 l 1,1,-1
 303.440429688 5.6552734375 l 1,2,-1
 303.440429688 24.7900390625 l 1,3,-1
 316.969726562 38.3203125 l 1,4,-1
 411.6796875 133.030273438 l 1,5,-1
 411.6796875 266.969726562 l 1,6,-1
 316.969726562 361.6796875 l 1,7,-1
 183.03125 361.6796875 l 1,8,-1
 88.3212890625 266.969726562 l 1,9,-1
 88.3212890625 133.030273438 l 1,10,-1
 183.03125 38.3203125 l 1,11,-1
 196.560546875 24.7900390625 l 1,12,-1
 196.560546875 5.65625 l 1,13,-1
 183.03125 -7.8740234375 l 1,14,-1
 163.897460938 -7.8740234375 l 1,15,-1
 150.3671875 5.6552734375 l 1,16,-1
 42.126953125 113.89453125 l 1,17,-1
 42.126953125 286.102539062 l 1,18,-1
 163.897460938 407.873046875 l 1,19,-1
 336.102539062 407.873046875 l 1,20,-1
 457.873046875 286.102539062 l 1,21,-1
 457.873046875 113.897460938 l 1,22,-1
 349.6328125 5.6572265625 l 1,23,-1
 336.103515625 -7.873046875 l 1,0,-1
128.91015625 353.754882812 m 1,24,-1
 403.75390625 78.9111328125 l 1,25,-1
 403.752929688 59.7763671875 l 1,26,-1
 390.224609375 46.2470703125 l 1,27,-1
 371.088867188 46.2451171875 l 1,28,-1
 96.24609375 321.088867188 l 1,29,-1
 96.2470703125 340.223632812 l 1,30,-1
 109.776367188 353.752929688 l 1,31,-1
 128.91015625 353.754882812 l 1,24,-1
EndSplineSet
EndChar

StartChar: b
Encoding: 98 98 25
Width: 500
Flags: W
AnchorPoint: "vowel" 250 200 basechar 0
LayerCount: 2
Fore
SplineSet
457.873046875 286.103515625 m 1,0,-1
 457.875 266.969726562 l 1,1,-1
 444.344726562 253.440429688 l 1,2,-1
 425.209960938 253.440429688 l 1,3,-1
 411.6796875 266.969726562 l 1,4,-1
 316.969726562 361.6796875 l 1,5,-1
 183.030273438 361.6796875 l 1,6,-1
 88.3203125 266.969726562 l 1,7,-1
 88.3203125 133.030273438 l 1,8,-1
 183.030273438 38.3203125 l 1,9,-1
 316.969726562 38.3203125 l 1,10,-1
 411.6796875 133.030273438 l 1,11,-1
 425.209960938 146.559570312 l 1,12,-1
 444.344726562 146.559570312 l 1,13,-1
 457.875 133.030273438 l 1,14,-1
 457.875 113.897460938 l 1,15,-1
 444.344726562 100.3671875 l 1,16,-1
 336.10546875 -7.873046875 l 1,17,-1
 163.897460938 -7.873046875 l 1,18,-1
 42.126953125 113.896484375 l 1,19,-1
 42.126953125 286.102539062 l 1,20,-1
 163.897460938 407.873046875 l 1,21,-1
 336.102539062 407.873046875 l 1,22,-1
 444.342773438 299.6328125 l 1,23,-1
 457.873046875 286.103515625 l 1,0,-1
128.91015625 353.754882812 m 1,24,-1
 403.75390625 78.9111328125 l 1,25,-1
 403.752929688 59.7763671875 l 1,26,-1
 390.224609375 46.2470703125 l 1,27,-1
 371.088867188 46.2451171875 l 1,28,-1
 96.24609375 321.088867188 l 1,29,-1
 96.2470703125 340.223632812 l 1,30,-1
 109.776367188 353.752929688 l 1,31,-1
 128.91015625 353.754882812 l 1,24,-1
EndSplineSet
EndChar

StartChar: t
Encoding: 116 116 26
Width: 500
Flags: W
AnchorPoint: "vowel" 250 200 basechar 0
LayerCount: 2
Fore
SplineSet
163.896484375 407.873046875 m 1,0,-1
 183.030273438 407.875 l 1,1,-1
 196.559570312 394.344726562 l 1,2,-1
 196.559570312 375.209960938 l 1,3,-1
 183.030273438 361.6796875 l 1,4,-1
 88.3203125 266.969726562 l 1,5,-1
 88.3203125 133.030273438 l 1,6,-1
 183.030273438 38.3203125 l 1,7,-1
 316.969726562 38.3203125 l 1,8,-1
 411.6796875 133.030273438 l 1,9,-1
 411.6796875 266.96875 l 1,10,-1
 316.969726562 361.678710938 l 1,11,-1
 303.440429688 375.208984375 l 1,12,-1
 303.440429688 394.34375 l 1,13,-1
 316.969726562 407.874023438 l 1,14,-1
 336.102539062 407.874023438 l 1,15,-1
 349.6328125 394.34375 l 1,16,-1
 457.873046875 286.103515625 l 1,17,-1
 457.873046875 113.896484375 l 1,18,-1
 336.103515625 -7.8740234375 l 1,19,-1
 163.897460938 -7.8740234375 l 1,20,-1
 42.126953125 113.896484375 l 1,21,-1
 42.126953125 286.102539062 l 1,22,-1
 150.3671875 394.342773438 l 1,23,-1
 163.896484375 407.873046875 l 1,0,-1
EndSplineSet
EndChar

StartChar: grave
Encoding: 96 96 27
Width: 500
Flags: W
LayerCount: 2
Fore
SplineSet
55.65625 223.09765625 m 1,0,-1
 74.791015625 223.09765625 l 1,1,-1
 88.3203125 209.56640625 l 1,2,-1
 88.3203125 190.43359375 l 1,3,-1
 74.791015625 176.90234375 l 1,4,-1
 55.65625 176.90234375 l 1,5,-1
 42.126953125 190.43359375 l 1,6,-1
 42.126953125 209.56640625 l 1,7,-1
 55.65625 223.09765625 l 1,0,-1
EndSplineSet
EndChar

StartChar: H
Encoding: 72 72 28
Width: 500
Flags: W
AnchorPoint: "vowel" 250 200 basechar 0
LayerCount: 2
Fore
SplineSet
163.896484375 -7.873046875 m 1,0,-1
 150.366210938 5.65625 l 1,1,-1
 150.366210938 24.7900390625 l 1,2,-1
 163.896484375 38.3203125 l 1,3,-1
 316.970703125 38.3203125 l 1,4,-1
 411.678710938 133.028320312 l 1,5,-1
 411.678710938 266.969726562 l 1,6,-1
 316.970703125 361.677734375 l 1,7,-1
 183.029296875 361.677734375 l 1,8,-1
 88.3212890625 266.969726562 l 1,9,-1
 88.3212890625 113.896484375 l 1,10,-1
 74.791015625 100.366210938 l 1,11,-1
 55.6572265625 100.366210938 l 1,12,-1
 42.126953125 113.896484375 l 1,13,-1
 42.126953125 286.103515625 l 1,14,-1
 163.896484375 407.873046875 l 1,15,-1
 336.103515625 407.873046875 l 1,16,-1
 457.873046875 286.103515625 l 1,17,-1
 457.873046875 113.896484375 l 1,18,-1
 336.103515625 -7.873046875 l 1,19,-1
 163.896484375 -7.873046875 l 1,0,-1
EndSplineSet
EndChar

StartChar: braceleft
Encoding: 123 123 29
Width: 500
Flags: W
LayerCount: 2
Fore
SplineSet
371.087890625 500.26171875 m 1,0,-1
 390.22265625 500.259765625 l 1,1,-1
 403.75390625 486.727539062 l 1,2,-1
 403.75390625 467.594726562 l 1,3,-1
 390.223632812 454.065429688 l 1,4,-1
 313.684570312 454.065429688 l 1,5,-1
 273.096679688 413.4765625 l 1,6,-1
 273.094726562 244.552734375 l 1,7,-1
 228.54296875 200 l 1,8,-1
 273.094726562 155.448242188 l 1,9,-1
 273.096679688 -13.4775390625 l 1,10,-1
 313.684570312 -54.06640625 l 1,11,-1
 390.221679688 -54.06640625 l 1,12,-1
 403.75390625 -67.5947265625 l 1,13,-1
 403.75390625 -86.73046875 l 1,14,-1
 390.223632812 -100.259765625 l 1,15,-1
 294.551757812 -100.259765625 l 1,16,-1
 226.904296875 -32.611328125 l 1,17,-1
 226.90234375 136.315429688 l 1,18,-1
 186.314453125 176.903320312 l 1,19,-1
 109.77734375 176.903320312 l 1,20,-1
 96.24609375 190.43359375 l 1,21,-1
 96.24609375 209.568359375 l 1,22,-1
 109.775390625 223.09765625 l 1,23,-1
 186.314453125 223.09765625 l 1,24,-1
 226.90234375 263.685546875 l 1,25,-1
 226.904296875 432.611328125 l 1,26,-1
 294.552734375 500.259765625 l 1,27,-1
 371.087890625 500.26171875 l 1,0,-1
EndSplineSet
EndChar

StartChar: o
Encoding: 111 111 30
Width: 0
GlyphClass: 4
Flags: W
AnchorPoint: "vowel" -250 200 mark 0
LayerCount: 2
Fore
SplineSet
-259.568359375 38.3203125 m 1,0,-1
 -240.431640625 38.3203125 l 1,1,-1
 -119.345703125 -82.767578125 l 1,2,-1
 -88.3203125 -51.74609375 l 1,3,-1
 -74.7890625 -38.21484375 l 1,4,-1
 -55.654296875 -38.21484375 l 1,5,-1
 -42.126953125 -51.744140625 l 1,6,-1
 -42.126953125 -70.87890625 l 1,7,-1
 -55.654296875 -84.408203125 l 1,8,-1
 -96.24609375 -124.998046875 l 1,9,-1
 -103.76171875 -132.515625 l 1,10,-1
 -109.77734375 -138.529296875 l 1,11,-1
 -163.896484375 -192.6484375 l 1,12,-1
 -336.103515625 -192.6484375 l 1,13,-1
 -444.34375 -84.408203125 l 1,14,-1
 -457.873046875 -70.87890625 l 1,15,-1
 -457.873046875 -51.74609375 l 1,16,-1
 -444.34375 -38.21484375 l 1,17,-1
 -425.2109375 -38.216796875 l 1,18,-1
 -411.6796875 -51.74609375 l 1,19,-1
 -316.970703125 -146.455078125 l 1,20,-1
 -183.03125 -146.455078125 l 1,21,-1
 -152.0078125 -115.431640625 l 1,22,-1
 -273.09765625 5.65625 l 1,23,-1
 -273.09765625 24.79296875 l 1,24,-1
 -259.568359375 38.3203125 l 1,0,-1
EndSplineSet
EndChar

StartChar: bar
Encoding: 124 124 31
Width: 500
Flags: W
LayerCount: 2
Fore
SplineSet
259.567382812 592.649414062 m 1,0,-1
 273.096679688 579.119140625 l 1,1,-1
 273.096679688 -179.120117188 l 1,2,-1
 259.567382812 -192.650390625 l 1,3,-1
 240.432617188 -192.650390625 l 1,4,-1
 226.903320312 -179.120117188 l 1,5,-1
 226.903320312 579.120117188 l 1,6,-1
 240.432617188 592.650390625 l 1,7,-1
 259.567382812 592.649414062 l 1,0,-1
EndSplineSet
EndChar

StartChar: I
Encoding: 73 73 32
Width: 0
GlyphClass: 4
Flags: W
AnchorPoint: "vowel" -250 200 mark 0
LayerCount: 2
Fore
SplineSet
-336.103515625 592.647460938 m 1,0,-1
 -163.8984375 592.647460938 l 1,1,-1
 -55.658203125 484.409179688 l 1,2,-1
 -42.1279296875 470.87890625 l 1,3,-1
 -42.1279296875 451.745117188 l 1,4,-1
 -55.6552734375 438.21484375 l 1,5,-1
 -74.791015625 438.21484375 l 1,6,-1
 -88.3212890625 451.745117188 l 1,7,-1
 -88.3212890625 451.747070312 l 1,8,-1
 -183.030273438 546.454101562 l 1,9,-1
 -183.030273438 546.456054688 l 1,10,-1
 -316.971679688 546.456054688 l 1,11,-1
 -411.6796875 451.747070312 l 1,12,-1
 -411.6796875 451.745117188 l 1,13,-1
 -425.209960938 438.212890625 l 1,14,-1
 -444.342773438 438.212890625 l 1,15,-1
 -457.873046875 451.745117188 l 1,16,-1
 -457.873046875 470.87890625 l 1,17,-1
 -444.34375 484.409179688 l 1,18,-1
 -336.103515625 592.647460938 l 1,0,-1
EndSplineSet
EndChar

StartChar: a
Encoding: 97 97 33
Width: 0
GlyphClass: 4
Flags: W
AnchorPoint: "vowel" -250 200 mark 0
LayerCount: 2
Fore
SplineSet
-336.103515625 592.646484375 m 1,0,-1
 -163.8984375 592.646484375 l 1,1,-1
 -55.658203125 484.41015625 l 1,2,-1
 -42.12890625 470.880859375 l 1,3,-1
 -42.12890625 451.744140625 l 1,4,-1
 -55.654296875 438.21484375 l 1,5,-1
 -74.791015625 438.21484375 l 1,6,-1
 -88.3203125 451.744140625 l 1,7,-1
 -88.3203125 451.74609375 l 1,8,-1
 -183.029296875 546.453125 l 1,9,-1
 -183.029296875 546.455078125 l 1,10,-1
 -316.97265625 546.455078125 l 1,11,-1
 -347.994140625 515.435546875 l 1,12,-1
 -226.90234375 394.345703125 l 1,13,-1
 -226.90234375 375.20703125 l 1,14,-1
 -240.431640625 361.681640625 l 1,15,-1
 -259.568359375 361.681640625 l 1,16,-1
 -380.658203125 482.771484375 l 1,17,-1
 -411.6796875 451.74609375 l 1,18,-1
 -411.6796875 451.744140625 l 1,19,-1
 -425.2109375 438.21484375 l 1,20,-1
 -444.34375 438.21484375 l 1,21,-1
 -457.873046875 451.744140625 l 1,22,-1
 -457.873046875 470.880859375 l 1,23,-1
 -444.34375 484.41015625 l 1,24,-1
 -403.75390625 525 l 1,25,-1
 -390.224609375 538.529296875 l 1,26,-1
 -390.220703125 538.529296875 l 1,27,-1
 -336.103515625 592.646484375 l 1,0,-1
EndSplineSet
EndChar

StartChar: u
Encoding: 117 117 34
Width: 0
GlyphClass: 4
Flags: W
AnchorPoint: "vowel" -250 200 mark 0
LayerCount: 2
Fore
SplineSet
-240.431640625 38.3212890625 m 1,0,-1
 -96.24609375 -105.865234375 l 1,1,-1
 -96.2470703125 -124.999023438 l 1,2,-1
 -109.776367188 -138.529296875 l 1,3,-1
 -128.911132812 -138.530273438 l 1,4,-1
 -273.096679688 5.65625 l 1,5,-1
 -273.096679688 24.7919921875 l 1,6,-1
 -259.568359375 38.3212890625 l 1,7,-1
 -240.431640625 38.3212890625 l 1,0,-1
EndSplineSet
EndChar

StartChar: underscore
Encoding: 95 95 35
Width: 500
Flags: W
LayerCount: 2
Fore
SplineSet
54.7216796875 38.4326171875 m 1,0,-1
 445.278320312 38.4326171875 l 1,1,-1
 458.873046875 24.8369140625 l 1,2,-1
 458.873046875 5.611328125 l 1,3,-1
 445.280273438 -7.984375 l 1,4,-1
 54.7216796875 -7.984375 l 1,5,-1
 41.126953125 5.611328125 l 1,6,-1
 41.126953125 24.8369140625 l 1,7,-1
 54.7216796875 38.4326171875 l 1,0,-1
EndSplineSet
EndChar

StartChar: K
Encoding: 75 75 36
Width: 500
Flags: W
AnchorPoint: "vowel" 250 200 basechar 0
LayerCount: 2
Fore
SplineSet
42.126953125 286.103515625 m 1,0,-1
 55.6572265625 299.633789062 l 1,1,-1
 74.791015625 299.633789062 l 1,2,-1
 88.3212890625 286.103515625 l 1,3,-1
 88.3212890625 133.030273438 l 1,4,-1
 183.029296875 38.3212890625 l 1,5,-1
 316.969726562 38.3212890625 l 1,6,-1
 411.677734375 133.029296875 l 1,7,-1
 411.677734375 266.970703125 l 1,8,-1
 316.969726562 361.678710938 l 1,9,-1
 163.896484375 361.678710938 l 1,10,-1
 150.366210938 375.208984375 l 1,11,-1
 150.366210938 394.342773438 l 1,12,-1
 163.896484375 407.873046875 l 1,13,-1
 336.103515625 407.873046875 l 1,14,-1
 457.873046875 286.103515625 l 1,15,-1
 457.873046875 113.896484375 l 1,16,-1
 336.103515625 -7.873046875 l 1,17,-1
 163.896484375 -7.873046875 l 1,18,-1
 42.126953125 113.896484375 l 1,19,-1
 42.126953125 286.103515625 l 1,0,-1
EndSplineSet
EndChar

StartChar: x
Encoding: 120 120 37
Width: 500
Flags: W
AnchorPoint: "vowel" 250 200 basechar 0
LayerCount: 2
Fore
SplineSet
163.896484375 -7.873046875 m 1,0,-1
 150.366210938 5.65625 l 1,1,-1
 150.366210938 24.7900390625 l 1,2,-1
 163.896484375 38.3203125 l 1,3,-1
 316.970703125 38.3203125 l 1,4,-1
 411.678710938 133.028320312 l 1,5,-1
 411.678710938 266.969726562 l 1,6,-1
 316.970703125 361.677734375 l 1,7,-1
 183.029296875 361.677734375 l 1,8,-1
 88.3212890625 266.969726562 l 1,9,-1
 88.3212890625 113.896484375 l 1,10,-1
 74.791015625 100.366210938 l 1,11,-1
 55.6572265625 100.366210938 l 1,12,-1
 42.126953125 113.896484375 l 1,13,-1
 42.126953125 286.103515625 l 1,14,-1
 163.896484375 407.873046875 l 1,15,-1
 336.103515625 407.873046875 l 1,16,-1
 457.873046875 286.103515625 l 1,17,-1
 457.873046875 113.896484375 l 1,18,-1
 336.103515625 -7.873046875 l 1,19,-1
 163.896484375 -7.873046875 l 1,0,-1
128.91015625 353.754882812 m 1,20,-1
 403.75390625 78.9111328125 l 1,21,-1
 403.752929688 59.7763671875 l 1,22,-1
 390.224609375 46.2470703125 l 1,23,-1
 371.088867188 46.2451171875 l 1,24,-1
 96.24609375 321.088867188 l 1,25,-1
 96.2470703125 340.223632812 l 1,26,-1
 109.776367188 353.752929688 l 1,27,-1
 128.91015625 353.754882812 l 1,20,-1
EndSplineSet
EndChar

StartChar: P
Encoding: 80 80 38
Width: 500
Flags: W
AnchorPoint: "vowel" 250 200 basechar 0
LayerCount: 2
Fore
SplineSet
457.873046875 286.103515625 m 1,0,-1
 457.875 266.969726562 l 1,1,-1
 444.344726562 253.440429688 l 1,2,-1
 425.209960938 253.440429688 l 1,3,-1
 411.6796875 266.969726562 l 1,4,-1
 316.969726562 361.6796875 l 1,5,-1
 183.030273438 361.6796875 l 1,6,-1
 88.3203125 266.969726562 l 1,7,-1
 88.3203125 133.030273438 l 1,8,-1
 183.030273438 38.3203125 l 1,9,-1
 316.969726562 38.3203125 l 1,10,-1
 411.6796875 133.030273438 l 1,11,-1
 425.209960938 146.559570312 l 1,12,-1
 444.344726562 146.559570312 l 1,13,-1
 457.875 133.030273438 l 1,14,-1
 457.875 113.897460938 l 1,15,-1
 444.344726562 100.3671875 l 1,16,-1
 336.10546875 -7.873046875 l 1,17,-1
 163.897460938 -7.873046875 l 1,18,-1
 42.126953125 113.896484375 l 1,19,-1
 42.126953125 286.102539062 l 1,20,-1
 163.897460938 407.873046875 l 1,21,-1
 336.102539062 407.873046875 l 1,22,-1
 444.342773438 299.6328125 l 1,23,-1
 457.873046875 286.103515625 l 1,0,-1
EndSplineSet
EndChar

StartChar: D
Encoding: 68 68 39
Width: 500
Flags: W
AnchorPoint: "vowel" 250 200 basechar 0
LayerCount: 2
Fore
SplineSet
163.896484375 407.873046875 m 1,0,-1
 183.030273438 407.875 l 1,1,-1
 196.559570312 394.344726562 l 1,2,-1
 196.559570312 375.209960938 l 1,3,-1
 183.030273438 361.6796875 l 1,4,-1
 88.3203125 266.969726562 l 1,5,-1
 88.3203125 133.030273438 l 1,6,-1
 183.030273438 38.3203125 l 1,7,-1
 316.969726562 38.3203125 l 1,8,-1
 411.6796875 133.030273438 l 1,9,-1
 411.6796875 266.96875 l 1,10,-1
 316.969726562 361.678710938 l 1,11,-1
 303.440429688 375.208984375 l 1,12,-1
 303.440429688 394.34375 l 1,13,-1
 316.969726562 407.874023438 l 1,14,-1
 336.102539062 407.874023438 l 1,15,-1
 349.6328125 394.34375 l 1,16,-1
 457.873046875 286.103515625 l 1,17,-1
 457.873046875 113.896484375 l 1,18,-1
 336.103515625 -7.8740234375 l 1,19,-1
 163.897460938 -7.8740234375 l 1,20,-1
 42.126953125 113.896484375 l 1,21,-1
 42.126953125 286.102539062 l 1,22,-1
 150.3671875 394.342773438 l 1,23,-1
 163.896484375 407.873046875 l 1,0,-1
128.91015625 353.754882812 m 1,24,-1
 403.75390625 78.9111328125 l 1,25,-1
 403.752929688 59.7763671875 l 1,26,-1
 390.224609375 46.2470703125 l 1,27,-1
 371.088867188 46.2451171875 l 1,28,-1
 96.24609375 321.088867188 l 1,29,-1
 96.2470703125 340.223632812 l 1,30,-1
 109.776367188 353.752929688 l 1,31,-1
 128.91015625 353.754882812 l 1,24,-1
EndSplineSet
EndChar

StartChar: E
Encoding: 69 69 40
Width: 0
GlyphClass: 4
Flags: W
AnchorPoint: "vowel" -250 200 mark 0
LayerCount: 2
Fore
SplineSet
-259.568359375 361.678710938 m 1,0,-1
 -403.75390625 505.865234375 l 1,1,-1
 -403.752929688 524.999023438 l 1,2,-1
 -390.223632812 538.529296875 l 1,3,-1
 -371.088867188 538.530273438 l 1,4,-1
 -226.903320312 394.34375 l 1,5,-1
 -226.903320312 375.208007812 l 1,6,-1
 -240.431640625 361.678710938 l 1,7,-1
 -259.568359375 361.678710938 l 1,0,-1
EndSplineSet
EndChar

StartChar: Q
Encoding: 81 81 41
Width: 500
Flags: W
AnchorPoint: "vowel" 250 200 basechar 0
LayerCount: 2
Fore
SplineSet
42.126953125 113.896484375 m 1,0,-1
 42.1259765625 133.030273438 l 1,1,-1
 55.65625 146.559570312 l 1,2,-1
 74.7900390625 146.559570312 l 1,3,-1
 88.3203125 133.030273438 l 1,4,-1
 183.030273438 38.3203125 l 1,5,-1
 316.969726562 38.3203125 l 1,6,-1
 411.6796875 133.030273438 l 1,7,-1
 411.6796875 266.967773438 l 1,8,-1
 316.969726562 361.677734375 l 1,9,-1
 183.03125 361.677734375 l 1,10,-1
 88.3212890625 266.967773438 l 1,11,-1
 74.791015625 253.438476562 l 1,12,-1
 55.65625 253.438476562 l 1,13,-1
 42.1259765625 266.967773438 l 1,14,-1
 42.1259765625 286.1015625 l 1,15,-1
 55.65625 299.631835938 l 1,16,-1
 163.896484375 407.872070312 l 1,17,-1
 336.103515625 407.872070312 l 1,18,-1
 457.874023438 286.102539062 l 1,19,-1
 457.874023438 113.897460938 l 1,20,-1
 336.103515625 -7.873046875 l 1,21,-1
 163.897460938 -7.873046875 l 1,22,-1
 55.6572265625 100.3671875 l 1,23,-1
 42.126953125 113.896484375 l 1,0,-1
EndSplineSet
EndChar

StartChar: y
Encoding: 121 121 42
Width: 500
Flags: W
AnchorPoint: "vowel" 250 200 basechar 0
LayerCount: 2
Fore
SplineSet
42.126953125 113.896484375 m 1,0,-1
 42.1259765625 133.030273438 l 1,1,-1
 55.65625 146.559570312 l 1,2,-1
 74.7900390625 146.559570312 l 1,3,-1
 88.3203125 133.030273438 l 1,4,-1
 183.030273438 38.3203125 l 1,5,-1
 316.969726562 38.3203125 l 1,6,-1
 411.6796875 133.030273438 l 1,7,-1
 411.6796875 266.967773438 l 1,8,-1
 316.969726562 361.677734375 l 1,9,-1
 183.03125 361.677734375 l 1,10,-1
 88.3212890625 266.967773438 l 1,11,-1
 74.791015625 253.438476562 l 1,12,-1
 55.65625 253.438476562 l 1,13,-1
 42.1259765625 266.967773438 l 1,14,-1
 42.1259765625 286.1015625 l 1,15,-1
 55.65625 299.631835938 l 1,16,-1
 163.896484375 407.872070312 l 1,17,-1
 336.103515625 407.872070312 l 1,18,-1
 457.874023438 286.102539062 l 1,19,-1
 457.874023438 113.897460938 l 1,20,-1
 336.103515625 -7.873046875 l 1,21,-1
 163.897460938 -7.873046875 l 1,22,-1
 55.6572265625 100.3671875 l 1,23,-1
 42.126953125 113.896484375 l 1,0,-1
128.91015625 353.754882812 m 1,24,-1
 403.75390625 78.9111328125 l 1,25,-1
 403.752929688 59.7763671875 l 1,26,-1
 390.224609375 46.2470703125 l 1,27,-1
 371.088867188 46.2451171875 l 1,28,-1
 96.24609375 321.088867188 l 1,29,-1
 96.2470703125 340.223632812 l 1,30,-1
 109.776367188 353.752929688 l 1,31,-1
 128.91015625 353.754882812 l 1,24,-1
202.1640625 315.484375 m 1,32,-1
 297.8359375 315.484375 l 1,33,-1
 365.484375 247.8359375 l 1,34,-1
 365.484375 152.1640625 l 1,35,-1
 297.8359375 84.515625 l 1,36,-1
 202.1640625 84.515625 l 1,37,-1
 134.515625 152.1640625 l 1,38,-1
 134.515625 247.8359375 l 1,39,-1
 202.1640625 315.484375 l 1,32,-1
221.30078125 269.291015625 m 1,40,-1
 180.7109375 228.701171875 l 1,41,-1
 180.7109375 171.30078125 l 1,42,-1
 221.30078125 130.7109375 l 1,43,-1
 278.69921875 130.7109375 l 1,44,-1
 319.2890625 171.30078125 l 1,45,-1
 319.2890625 228.69921875 l 1,46,-1
 278.69921875 269.2890625 l 1,47,-1
 278.69921875 269.291015625 l 1,48,-1
 221.30078125 269.291015625 l 1,40,-1
EndSplineSet
EndChar

StartChar: L
Encoding: 76 76 43
Width: 500
Flags: W
AnchorPoint: "vowel" 250 200 basechar 0
LayerCount: 2
Fore
SplineSet
163.896484375 407.873046875 m 1,0,-1
 183.030273438 407.875 l 1,1,-1
 196.559570312 394.344726562 l 1,2,-1
 196.559570312 375.209960938 l 1,3,-1
 183.030273438 361.6796875 l 1,4,-1
 88.3203125 266.969726562 l 1,5,-1
 88.3203125 133.030273438 l 1,6,-1
 183.030273438 38.3203125 l 1,7,-1
 316.969726562 38.3203125 l 1,8,-1
 411.6796875 133.030273438 l 1,9,-1
 411.6796875 266.96875 l 1,10,-1
 316.969726562 361.678710938 l 1,11,-1
 303.440429688 375.208984375 l 1,12,-1
 303.440429688 394.34375 l 1,13,-1
 316.969726562 407.874023438 l 1,14,-1
 336.102539062 407.874023438 l 1,15,-1
 349.6328125 394.34375 l 1,16,-1
 457.873046875 286.103515625 l 1,17,-1
 457.873046875 113.896484375 l 1,18,-1
 336.103515625 -7.8740234375 l 1,19,-1
 163.897460938 -7.8740234375 l 1,20,-1
 42.126953125 113.896484375 l 1,21,-1
 42.126953125 286.102539062 l 1,22,-1
 150.3671875 394.342773438 l 1,23,-1
 163.896484375 407.873046875 l 1,0,-1
128.91015625 353.754882812 m 1,24,-1
 403.75390625 78.9111328125 l 1,25,-1
 403.752929688 59.7763671875 l 1,26,-1
 390.224609375 46.2470703125 l 1,27,-1
 371.088867188 46.2451171875 l 1,28,-1
 96.24609375 321.088867188 l 1,29,-1
 96.2470703125 340.223632812 l 1,30,-1
 109.776367188 353.752929688 l 1,31,-1
 128.91015625 353.754882812 l 1,24,-1
EndSplineSet
EndChar

StartChar: J
Encoding: 74 74 44
Width: 500
Flags: W
AnchorPoint: "vowel" 250 200 basechar 0
LayerCount: 2
Fore
SplineSet
336.103515625 407.873046875 m 1,0,-1
 349.633789062 394.342773438 l 1,1,-1
 349.633789062 375.208984375 l 1,2,-1
 336.103515625 361.678710938 l 1,3,-1
 183.029296875 361.678710938 l 1,4,-1
 88.3212890625 266.970703125 l 1,5,-1
 88.3212890625 133.030273438 l 1,6,-1
 183.029296875 38.322265625 l 1,7,-1
 316.970703125 38.322265625 l 1,8,-1
 411.678710938 133.030273438 l 1,9,-1
 411.678710938 286.103515625 l 1,10,-1
 425.208984375 299.633789062 l 1,11,-1
 444.342773438 299.633789062 l 1,12,-1
 457.873046875 286.103515625 l 1,13,-1
 457.873046875 113.896484375 l 1,14,-1
 336.103515625 -7.873046875 l 1,15,-1
 163.896484375 -7.873046875 l 1,16,-1
 42.126953125 113.896484375 l 1,17,-1
 42.126953125 286.103515625 l 1,18,-1
 163.896484375 407.873046875 l 1,19,-1
 336.103515625 407.873046875 l 1,0,-1
128.91015625 353.754882812 m 1,20,-1
 403.75390625 78.9111328125 l 1,21,-1
 403.752929688 59.7763671875 l 1,22,-1
 390.224609375 46.2470703125 l 1,23,-1
 371.088867188 46.2451171875 l 1,24,-1
 96.24609375 321.088867188 l 1,25,-1
 96.2470703125 340.223632812 l 1,26,-1
 109.776367188 353.752929688 l 1,27,-1
 128.91015625 353.754882812 l 1,20,-1
202.1640625 315.484375 m 1,28,-1
 297.8359375 315.484375 l 1,29,-1
 365.484375 247.8359375 l 1,30,-1
 365.484375 152.1640625 l 1,31,-1
 297.8359375 84.515625 l 1,32,-1
 202.1640625 84.515625 l 1,33,-1
 134.515625 152.1640625 l 1,34,-1
 134.515625 247.8359375 l 1,35,-1
 202.1640625 315.484375 l 1,28,-1
221.30078125 269.291015625 m 1,36,-1
 180.7109375 228.701171875 l 1,37,-1
 180.7109375 171.30078125 l 1,38,-1
 221.30078125 130.7109375 l 1,39,-1
 278.69921875 130.7109375 l 1,40,-1
 319.2890625 171.30078125 l 1,41,-1
 319.2890625 228.69921875 l 1,42,-1
 278.69921875 269.2890625 l 1,43,-1
 278.69921875 269.291015625 l 1,44,-1
 221.30078125 269.291015625 l 1,36,-1
EndSplineSet
EndChar

StartChar: asciicircum
Encoding: 94 94 45
Width: 500
Flags: W
LayerCount: 2
Fore
SplineSet
240.43359375 407.873046875 m 1,0,-1
 259.56640625 407.873046875 l 1,1,-1
 273.09765625 394.34375 l 1,2,-1
 273.09765625 375.208984375 l 1,3,-1
 259.56640625 361.6796875 l 1,4,-1
 240.43359375 361.6796875 l 1,5,-1
 226.90234375 375.208984375 l 1,6,-1
 226.90234375 394.34375 l 1,7,-1
 240.43359375 407.873046875 l 1,0,-1
55.65625 223.09765625 m 1,8,-1
 74.791015625 223.09765625 l 1,9,-1
 88.3203125 209.56640625 l 1,10,-1
 88.3203125 190.43359375 l 1,11,-1
 74.791015625 176.90234375 l 1,12,-1
 55.65625 176.90234375 l 1,13,-1
 42.126953125 190.43359375 l 1,14,-1
 42.126953125 209.56640625 l 1,15,-1
 55.65625 223.09765625 l 1,8,-1
425.208984375 223.09765625 m 1,16,-1
 444.34375 223.09765625 l 1,17,-1
 457.873046875 209.56640625 l 1,18,-1
 457.873046875 190.43359375 l 1,19,-1
 444.34375 176.90234375 l 1,20,-1
 425.208984375 176.90234375 l 1,21,-1
 411.6796875 190.43359375 l 1,22,-1
 411.6796875 209.56640625 l 1,23,-1
 425.208984375 223.09765625 l 1,16,-1
EndSplineSet
EndChar

StartChar: G
Encoding: 71 71 46
Width: 500
Flags: W
AnchorPoint: "vowel" 250 200 basechar 0
LayerCount: 2
Fore
SplineSet
42.126953125 286.103515625 m 1,0,-1
 55.6572265625 299.633789062 l 1,1,-1
 74.791015625 299.633789062 l 1,2,-1
 88.3212890625 286.103515625 l 1,3,-1
 88.3212890625 133.030273438 l 1,4,-1
 183.029296875 38.3212890625 l 1,5,-1
 316.969726562 38.3212890625 l 1,6,-1
 411.677734375 133.029296875 l 1,7,-1
 411.677734375 266.970703125 l 1,8,-1
 316.969726562 361.678710938 l 1,9,-1
 163.896484375 361.678710938 l 1,10,-1
 150.366210938 375.208984375 l 1,11,-1
 150.366210938 394.342773438 l 1,12,-1
 163.896484375 407.873046875 l 1,13,-1
 336.103515625 407.873046875 l 1,14,-1
 457.873046875 286.103515625 l 1,15,-1
 457.873046875 113.896484375 l 1,16,-1
 336.103515625 -7.873046875 l 1,17,-1
 163.896484375 -7.873046875 l 1,18,-1
 42.126953125 113.896484375 l 1,19,-1
 42.126953125 286.103515625 l 1,0,-1
128.91015625 353.754882812 m 1,20,-1
 403.75390625 78.9111328125 l 1,21,-1
 403.752929688 59.7763671875 l 1,22,-1
 390.224609375 46.2470703125 l 1,23,-1
 371.088867188 46.2451171875 l 1,24,-1
 96.24609375 321.088867188 l 1,25,-1
 96.2470703125 340.223632812 l 1,26,-1
 109.776367188 353.752929688 l 1,27,-1
 128.91015625 353.754882812 l 1,20,-1
EndSplineSet
EndChar

StartChar: S
Encoding: 83 83 47
Width: 500
Flags: W
AnchorPoint: "vowel" 250 200 basechar 0
LayerCount: 2
Fore
SplineSet
336.103515625 407.873046875 m 1,0,-1
 349.633789062 394.342773438 l 1,1,-1
 349.633789062 375.208984375 l 1,2,-1
 336.103515625 361.678710938 l 1,3,-1
 183.029296875 361.678710938 l 1,4,-1
 88.3212890625 266.970703125 l 1,5,-1
 88.3212890625 133.030273438 l 1,6,-1
 183.029296875 38.322265625 l 1,7,-1
 316.970703125 38.322265625 l 1,8,-1
 411.678710938 133.030273438 l 1,9,-1
 411.678710938 286.103515625 l 1,10,-1
 425.208984375 299.633789062 l 1,11,-1
 444.342773438 299.633789062 l 1,12,-1
 457.873046875 286.103515625 l 1,13,-1
 457.873046875 113.896484375 l 1,14,-1
 336.103515625 -7.873046875 l 1,15,-1
 163.896484375 -7.873046875 l 1,16,-1
 42.126953125 113.896484375 l 1,17,-1
 42.126953125 286.103515625 l 1,18,-1
 163.896484375 407.873046875 l 1,19,-1
 336.103515625 407.873046875 l 1,0,-1
EndSplineSet
EndChar

StartChar: R
Encoding: 82 82 48
Width: 500
Flags: W
AnchorPoint: "vowel" 250 200 basechar 0
LayerCount: 2
Fore
SplineSet
163.896484375 407.873046875 m 1,0,-1
 336.103515625 407.873046875 l 1,1,-1
 336.103515625 407.87109375 l 1,2,-1
 444.34375 299.6328125 l 1,3,-1
 457.873046875 286.103515625 l 1,4,-1
 457.875 266.970703125 l 1,5,-1
 457.873046875 266.96875 l 1,6,-1
 457.873046875 133.03125 l 1,7,-1
 457.875 133.029296875 l 1,8,-1
 457.875 113.896484375 l 1,9,-1
 457.873046875 113.896484375 l 1,10,-1
 444.345703125 100.3671875 l 1,11,-1
 336.103515625 -7.873046875 l 1,12,-1
 163.896484375 -7.873046875 l 1,13,-1
 55.65625 100.3671875 l 1,14,-1
 42.126953125 113.896484375 l 1,15,-1
 42.126953125 133.029296875 l 1,16,-1
 42.126953125 266.96875 l 1,17,-1
 42.126953125 286.1015625 l 1,18,-1
 42.126953125 286.103515625 l 1,19,-1
 55.65625 299.6328125 l 1,20,-1
 163.896484375 407.87109375 l 1,21,-1
 163.896484375 407.873046875 l 1,0,-1
183.03125 361.677734375 m 1,22,-1
 88.3203125 266.970703125 l 1,23,-1
 88.3203125 266.96875 l 1,24,-1
 88.3203125 133.029296875 l 1,25,-1
 183.029296875 38.3203125 l 1,26,-1
 316.970703125 38.3203125 l 1,27,-1
 411.6796875 133.029296875 l 1,28,-1
 411.6796875 266.96875 l 1,29,-1
 411.6796875 266.970703125 l 1,30,-1
 316.970703125 361.677734375 l 1,31,-1
 183.03125 361.677734375 l 1,22,-1
EndSplineSet
EndChar

StartChar: F
Encoding: 70 70 49
Width: 500
Flags: W
AnchorPoint: "vowel" 250 200 basechar 0
LayerCount: 2
Fore
SplineSet
336.103515625 -7.873046875 m 1,0,-1
 316.969726562 -7.8740234375 l 1,1,-1
 303.440429688 5.6552734375 l 1,2,-1
 303.440429688 24.7900390625 l 1,3,-1
 316.969726562 38.3203125 l 1,4,-1
 411.6796875 133.030273438 l 1,5,-1
 411.6796875 266.969726562 l 1,6,-1
 316.969726562 361.6796875 l 1,7,-1
 183.03125 361.6796875 l 1,8,-1
 88.3212890625 266.969726562 l 1,9,-1
 88.3212890625 133.030273438 l 1,10,-1
 183.03125 38.3203125 l 1,11,-1
 196.560546875 24.7900390625 l 1,12,-1
 196.560546875 5.65625 l 1,13,-1
 183.03125 -7.8740234375 l 1,14,-1
 163.897460938 -7.8740234375 l 1,15,-1
 150.3671875 5.6552734375 l 1,16,-1
 42.126953125 113.89453125 l 1,17,-1
 42.126953125 286.102539062 l 1,18,-1
 163.897460938 407.873046875 l 1,19,-1
 336.102539062 407.873046875 l 1,20,-1
 457.873046875 286.102539062 l 1,21,-1
 457.873046875 113.897460938 l 1,22,-1
 349.6328125 5.6572265625 l 1,23,-1
 336.103515625 -7.873046875 l 1,0,-1
EndSplineSet
EndChar

StartChar: bracketright
Encoding: 93 93 50
Width: 500
Flags: W
LayerCount: 2
Fore
SplineSet
202.1640625 500.259765625 m 1,0,-1
 297.8359375 500.259765625 l 1,1,-1
 365.484375 432.611328125 l 1,2,-1
 365.484375 -32.611328125 l 1,3,-1
 297.8359375 -100.259765625 l 1,4,-1
 202.1640625 -100.259765625 l 1,5,-1
 134.515625 -32.611328125 l 1,6,-1
 134.515625 -13.4765625 l 1,7,-1
 148.046875 0.0546875 l 1,8,-1
 167.1796875 0.0546875 l 1,9,-1
 221.30078125 -54.06640625 l 1,10,-1
 278.69921875 -54.06640625 l 1,11,-1
 319.2890625 -13.4765625 l 1,12,-1
 319.2890625 413.4765625 l 1,13,-1
 278.69921875 454.06640625 l 1,14,-1
 221.298828125 454.06640625 l 1,15,-1
 167.1796875 399.947265625 l 1,16,-1
 148.044921875 399.947265625 l 1,17,-1
 134.515625 413.4765625 l 1,18,-1
 134.515625 432.611328125 l 1,19,-1
 202.1640625 500.259765625 l 1,0,-1
EndSplineSet
EndChar

StartChar: B
Encoding: 66 66 51
Width: 500
Flags: W
AnchorPoint: "vowel" 250 200 basechar 0
LayerCount: 2
Fore
SplineSet
457.873046875 286.103515625 m 1,0,-1
 457.875 266.969726562 l 1,1,-1
 444.344726562 253.440429688 l 1,2,-1
 425.209960938 253.440429688 l 1,3,-1
 411.6796875 266.969726562 l 1,4,-1
 316.969726562 361.6796875 l 1,5,-1
 183.030273438 361.6796875 l 1,6,-1
 88.3203125 266.969726562 l 1,7,-1
 88.3203125 133.030273438 l 1,8,-1
 183.030273438 38.3203125 l 1,9,-1
 316.969726562 38.3203125 l 1,10,-1
 411.6796875 133.030273438 l 1,11,-1
 425.209960938 146.559570312 l 1,12,-1
 444.344726562 146.559570312 l 1,13,-1
 457.875 133.030273438 l 1,14,-1
 457.875 113.897460938 l 1,15,-1
 444.344726562 100.3671875 l 1,16,-1
 336.10546875 -7.873046875 l 1,17,-1
 163.897460938 -7.873046875 l 1,18,-1
 42.126953125 113.896484375 l 1,19,-1
 42.126953125 286.102539062 l 1,20,-1
 163.897460938 407.873046875 l 1,21,-1
 336.102539062 407.873046875 l 1,22,-1
 444.342773438 299.6328125 l 1,23,-1
 457.873046875 286.103515625 l 1,0,-1
128.91015625 353.754882812 m 1,24,-1
 403.75390625 78.9111328125 l 1,25,-1
 403.752929688 59.7763671875 l 1,26,-1
 390.224609375 46.2470703125 l 1,27,-1
 371.088867188 46.2451171875 l 1,28,-1
 96.24609375 321.088867188 l 1,29,-1
 96.2470703125 340.223632812 l 1,30,-1
 109.776367188 353.752929688 l 1,31,-1
 128.91015625 353.754882812 l 1,24,-1
EndSplineSet
EndChar

StartChar: V
Encoding: 86 86 52
Width: 500
Flags: W
AnchorPoint: "vowel" 250 200 basechar 0
LayerCount: 2
Fore
SplineSet
336.103515625 -7.873046875 m 1,0,-1
 316.969726562 -7.8740234375 l 1,1,-1
 303.440429688 5.6552734375 l 1,2,-1
 303.440429688 24.7900390625 l 1,3,-1
 316.969726562 38.3203125 l 1,4,-1
 411.6796875 133.030273438 l 1,5,-1
 411.6796875 266.969726562 l 1,6,-1
 316.969726562 361.6796875 l 1,7,-1
 183.03125 361.6796875 l 1,8,-1
 88.3212890625 266.969726562 l 1,9,-1
 88.3212890625 133.030273438 l 1,10,-1
 183.03125 38.3203125 l 1,11,-1
 196.560546875 24.7900390625 l 1,12,-1
 196.560546875 5.65625 l 1,13,-1
 183.03125 -7.8740234375 l 1,14,-1
 163.897460938 -7.8740234375 l 1,15,-1
 150.3671875 5.6552734375 l 1,16,-1
 42.126953125 113.89453125 l 1,17,-1
 42.126953125 286.102539062 l 1,18,-1
 163.897460938 407.873046875 l 1,19,-1
 336.102539062 407.873046875 l 1,20,-1
 457.873046875 286.102539062 l 1,21,-1
 457.873046875 113.897460938 l 1,22,-1
 349.6328125 5.6572265625 l 1,23,-1
 336.103515625 -7.873046875 l 1,0,-1
128.91015625 353.754882812 m 1,24,-1
 403.75390625 78.9111328125 l 1,25,-1
 403.752929688 59.7763671875 l 1,26,-1
 390.224609375 46.2470703125 l 1,27,-1
 371.088867188 46.2451171875 l 1,28,-1
 96.24609375 321.088867188 l 1,29,-1
 96.2470703125 340.223632812 l 1,30,-1
 109.776367188 353.752929688 l 1,31,-1
 128.91015625 353.754882812 l 1,24,-1
EndSplineSet
EndChar

StartChar: M
Encoding: 77 77 53
Width: 500
Flags: W
AnchorPoint: "vowel" 250 200 basechar 0
LayerCount: 2
Fore
SplineSet
457.873046875 113.896484375 m 1,0,-1
 444.342773438 100.366210938 l 1,1,-1
 425.208984375 100.366210938 l 1,2,-1
 411.678710938 113.896484375 l 1,3,-1
 411.678710938 266.970703125 l 1,4,-1
 316.970703125 361.678710938 l 1,5,-1
 183.029296875 361.678710938 l 1,6,-1
 88.3212890625 266.970703125 l 1,7,-1
 88.3212890625 133.030273438 l 1,8,-1
 183.030273438 38.3212890625 l 1,9,-1
 336.103515625 38.3212890625 l 1,10,-1
 349.633789062 24.791015625 l 1,11,-1
 349.633789062 5.6572265625 l 1,12,-1
 336.103515625 -7.873046875 l 1,13,-1
 163.896484375 -7.873046875 l 1,14,-1
 42.126953125 113.896484375 l 1,15,-1
 42.126953125 286.103515625 l 1,16,-1
 163.896484375 407.873046875 l 1,17,-1
 336.103515625 407.873046875 l 1,18,-1
 457.873046875 286.103515625 l 1,19,-1
 457.873046875 113.896484375 l 1,0,-1
EndSplineSet
EndChar

StartChar: Z
Encoding: 90 90 54
Width: 500
Flags: W
AnchorPoint: "vowel" 250 200 basechar 0
LayerCount: 2
Fore
SplineSet
336.103515625 407.873046875 m 1,0,-1
 349.633789062 394.342773438 l 1,1,-1
 349.633789062 375.208984375 l 1,2,-1
 336.103515625 361.678710938 l 1,3,-1
 183.029296875 361.678710938 l 1,4,-1
 88.3212890625 266.970703125 l 1,5,-1
 88.3212890625 133.030273438 l 1,6,-1
 183.029296875 38.322265625 l 1,7,-1
 316.970703125 38.322265625 l 1,8,-1
 411.678710938 133.030273438 l 1,9,-1
 411.678710938 286.103515625 l 1,10,-1
 425.208984375 299.633789062 l 1,11,-1
 444.342773438 299.633789062 l 1,12,-1
 457.873046875 286.103515625 l 1,13,-1
 457.873046875 113.896484375 l 1,14,-1
 336.103515625 -7.873046875 l 1,15,-1
 163.896484375 -7.873046875 l 1,16,-1
 42.126953125 113.896484375 l 1,17,-1
 42.126953125 286.103515625 l 1,18,-1
 163.896484375 407.873046875 l 1,19,-1
 336.103515625 407.873046875 l 1,0,-1
128.91015625 353.754882812 m 1,20,-1
 403.75390625 78.9111328125 l 1,21,-1
 403.752929688 59.7763671875 l 1,22,-1
 390.224609375 46.2470703125 l 1,23,-1
 371.088867188 46.2451171875 l 1,24,-1
 96.24609375 321.088867188 l 1,25,-1
 96.2470703125 340.223632812 l 1,26,-1
 109.776367188 353.752929688 l 1,27,-1
 128.91015625 353.754882812 l 1,20,-1
EndSplineSet
EndChar

StartChar: N
Encoding: 78 78 55
Width: 500
Flags: W
AnchorPoint: "vowel" 250 200 basechar 0
LayerCount: 2
Fore
SplineSet
457.873046875 113.896484375 m 1,0,-1
 444.342773438 100.366210938 l 1,1,-1
 425.208984375 100.366210938 l 1,2,-1
 411.678710938 113.896484375 l 1,3,-1
 411.678710938 266.970703125 l 1,4,-1
 316.970703125 361.678710938 l 1,5,-1
 183.029296875 361.678710938 l 1,6,-1
 88.3212890625 266.970703125 l 1,7,-1
 88.3212890625 133.030273438 l 1,8,-1
 183.030273438 38.3212890625 l 1,9,-1
 336.103515625 38.3212890625 l 1,10,-1
 349.633789062 24.791015625 l 1,11,-1
 349.633789062 5.6572265625 l 1,12,-1
 336.103515625 -7.873046875 l 1,13,-1
 163.896484375 -7.873046875 l 1,14,-1
 42.126953125 113.896484375 l 1,15,-1
 42.126953125 286.103515625 l 1,16,-1
 163.896484375 407.873046875 l 1,17,-1
 336.103515625 407.873046875 l 1,18,-1
 457.873046875 286.103515625 l 1,19,-1
 457.873046875 113.896484375 l 1,0,-1
128.91015625 353.754882812 m 1,20,-1
 403.75390625 78.9111328125 l 1,21,-1
 403.752929688 59.7763671875 l 1,22,-1
 390.224609375 46.2470703125 l 1,23,-1
 371.088867188 46.2451171875 l 1,24,-1
 96.24609375 321.088867188 l 1,25,-1
 96.2470703125 340.223632812 l 1,26,-1
 109.776367188 353.752929688 l 1,27,-1
 128.91015625 353.754882812 l 1,20,-1
EndSplineSet
EndChar

StartChar: W
Encoding: 87 87 56
Width: 0
GlyphClass: 4
Flags: W
AnchorPoint: "vowel" -250 200 mark 0
LayerCount: 2
Fore
SplineSet
-444.34375 -38.21484375 m 1,0,-1
 -425.209960938 -38.2158203125 l 1,1,-1
 -411.6796875 -51.74609375 l 1,2,-1
 -316.969726562 -146.456054688 l 1,3,-1
 -183.03125 -146.456054688 l 1,4,-1
 -88.3212890625 -51.7470703125 l 1,5,-1
 -74.7900390625 -38.21484375 l 1,6,-1
 -55.654296875 -38.21484375 l 1,7,-1
 -42.126953125 -51.7451171875 l 1,8,-1
 -42.126953125 -70.87890625 l 1,9,-1
 -55.654296875 -84.4091796875 l 1,10,-1
 -163.896484375 -192.649414062 l 1,11,-1
 -336.102539062 -192.649414062 l 1,12,-1
 -444.342773438 -84.4091796875 l 1,13,-1
 -457.873046875 -70.87890625 l 1,14,-1
 -457.873046875 -51.7470703125 l 1,15,-1
 -444.34375 -38.21484375 l 1,0,-1
EndSplineSet
EndChar

StartChar: C
Encoding: 67 67 57
Width: 500
Flags: W
AnchorPoint: "vowel" 250 200 basechar 0
LayerCount: 2
Fore
SplineSet
42.126953125 113.896484375 m 1,0,-1
 42.1259765625 133.030273438 l 1,1,-1
 55.65625 146.559570312 l 1,2,-1
 74.7900390625 146.559570312 l 1,3,-1
 88.3203125 133.030273438 l 1,4,-1
 183.030273438 38.3203125 l 1,5,-1
 316.969726562 38.3203125 l 1,6,-1
 411.6796875 133.030273438 l 1,7,-1
 411.6796875 266.967773438 l 1,8,-1
 316.969726562 361.677734375 l 1,9,-1
 183.03125 361.677734375 l 1,10,-1
 88.3212890625 266.967773438 l 1,11,-1
 74.791015625 253.438476562 l 1,12,-1
 55.65625 253.438476562 l 1,13,-1
 42.1259765625 266.967773438 l 1,14,-1
 42.1259765625 286.1015625 l 1,15,-1
 55.65625 299.631835938 l 1,16,-1
 163.896484375 407.872070312 l 1,17,-1
 336.103515625 407.872070312 l 1,18,-1
 457.874023438 286.102539062 l 1,19,-1
 457.874023438 113.897460938 l 1,20,-1
 336.103515625 -7.873046875 l 1,21,-1
 163.897460938 -7.873046875 l 1,22,-1
 55.6572265625 100.3671875 l 1,23,-1
 42.126953125 113.896484375 l 1,0,-1
128.91015625 353.754882812 m 1,24,-1
 403.75390625 78.9111328125 l 1,25,-1
 403.752929688 59.7763671875 l 1,26,-1
 390.224609375 46.2470703125 l 1,27,-1
 371.088867188 46.2451171875 l 1,28,-1
 96.24609375 321.088867188 l 1,29,-1
 96.2470703125 340.223632812 l 1,30,-1
 109.776367188 353.752929688 l 1,31,-1
 128.91015625 353.754882812 l 1,24,-1
EndSplineSet
EndChar

StartChar: U
Encoding: 85 85 58
Width: 0
GlyphClass: 4
Flags: W
AnchorPoint: "vowel" -250 200 mark 0
LayerCount: 2
Fore
SplineSet
-240.431640625 38.3212890625 m 1,0,-1
 -96.24609375 -105.865234375 l 1,1,-1
 -96.2470703125 -124.999023438 l 1,2,-1
 -109.776367188 -138.529296875 l 1,3,-1
 -128.911132812 -138.530273438 l 1,4,-1
 -273.096679688 5.65625 l 1,5,-1
 -273.096679688 24.7919921875 l 1,6,-1
 -259.568359375 38.3212890625 l 1,7,-1
 -240.431640625 38.3212890625 l 1,0,-1
EndSplineSet
EndChar

StartChar: A
Encoding: 65 65 59
Width: 0
GlyphClass: 4
Flags: W
AnchorPoint: "vowel" -250 200 mark 0
LayerCount: 2
Fore
SplineSet
-336.103515625 592.646484375 m 1,0,-1
 -163.8984375 592.646484375 l 1,1,-1
 -55.658203125 484.41015625 l 1,2,-1
 -42.12890625 470.880859375 l 1,3,-1
 -42.12890625 451.744140625 l 1,4,-1
 -55.654296875 438.21484375 l 1,5,-1
 -74.791015625 438.21484375 l 1,6,-1
 -88.3203125 451.744140625 l 1,7,-1
 -88.3203125 451.74609375 l 1,8,-1
 -183.029296875 546.453125 l 1,9,-1
 -183.029296875 546.455078125 l 1,10,-1
 -316.97265625 546.455078125 l 1,11,-1
 -347.994140625 515.435546875 l 1,12,-1
 -226.90234375 394.345703125 l 1,13,-1
 -226.90234375 375.20703125 l 1,14,-1
 -240.431640625 361.681640625 l 1,15,-1
 -259.568359375 361.681640625 l 1,16,-1
 -380.658203125 482.771484375 l 1,17,-1
 -411.6796875 451.74609375 l 1,18,-1
 -411.6796875 451.744140625 l 1,19,-1
 -425.2109375 438.21484375 l 1,20,-1
 -444.34375 438.21484375 l 1,21,-1
 -457.873046875 451.744140625 l 1,22,-1
 -457.873046875 470.880859375 l 1,23,-1
 -444.34375 484.41015625 l 1,24,-1
 -403.75390625 525 l 1,25,-1
 -390.224609375 538.529296875 l 1,26,-1
 -390.220703125 538.529296875 l 1,27,-1
 -336.103515625 592.646484375 l 1,0,-1
EndSplineSet
EndChar

StartChar: i
Encoding: 105 105 60
Width: 0
GlyphClass: 4
Flags: W
AnchorPoint: "vowel" -250 200 mark 0
LayerCount: 2
Fore
SplineSet
-336.103515625 592.647460938 m 1,0,-1
 -163.8984375 592.647460938 l 1,1,-1
 -55.658203125 484.409179688 l 1,2,-1
 -42.1279296875 470.87890625 l 1,3,-1
 -42.1279296875 451.745117188 l 1,4,-1
 -55.6552734375 438.21484375 l 1,5,-1
 -74.791015625 438.21484375 l 1,6,-1
 -88.3212890625 451.745117188 l 1,7,-1
 -88.3212890625 451.747070312 l 1,8,-1
 -183.030273438 546.454101562 l 1,9,-1
 -183.030273438 546.456054688 l 1,10,-1
 -316.971679688 546.456054688 l 1,11,-1
 -411.6796875 451.747070312 l 1,12,-1
 -411.6796875 451.745117188 l 1,13,-1
 -425.209960938 438.212890625 l 1,14,-1
 -444.342773438 438.212890625 l 1,15,-1
 -457.873046875 451.745117188 l 1,16,-1
 -457.873046875 470.87890625 l 1,17,-1
 -444.34375 484.409179688 l 1,18,-1
 -336.103515625 592.647460938 l 1,0,-1
EndSplineSet
EndChar

StartChar: backslash
Encoding: 92 92 61
Width: 500
Flags: W
LayerCount: 2
Fore
SplineSet
128.91015625 353.754882812 m 1,0,-1
 403.75390625 78.9111328125 l 1,1,-1
 403.752929688 59.7763671875 l 1,2,-1
 390.224609375 46.2470703125 l 1,3,-1
 371.088867188 46.2451171875 l 1,4,-1
 96.24609375 321.088867188 l 1,5,-1
 96.2470703125 340.223632812 l 1,6,-1
 109.776367188 353.752929688 l 1,7,-1
 128.91015625 353.754882812 l 1,0,-1
EndSplineSet
EndChar

StartChar: O
Encoding: 79 79 62
Width: 0
GlyphClass: 4
Flags: W
AnchorPoint: "vowel" -250 200 mark 0
LayerCount: 2
Fore
SplineSet
-259.568359375 38.3203125 m 1,0,-1
 -240.431640625 38.3203125 l 1,1,-1
 -119.345703125 -82.767578125 l 1,2,-1
 -88.3203125 -51.74609375 l 1,3,-1
 -74.7890625 -38.21484375 l 1,4,-1
 -55.654296875 -38.21484375 l 1,5,-1
 -42.126953125 -51.744140625 l 1,6,-1
 -42.126953125 -70.87890625 l 1,7,-1
 -55.654296875 -84.408203125 l 1,8,-1
 -96.24609375 -124.998046875 l 1,9,-1
 -103.76171875 -132.515625 l 1,10,-1
 -109.77734375 -138.529296875 l 1,11,-1
 -163.896484375 -192.6484375 l 1,12,-1
 -336.103515625 -192.6484375 l 1,13,-1
 -444.34375 -84.408203125 l 1,14,-1
 -457.873046875 -70.87890625 l 1,15,-1
 -457.873046875 -51.74609375 l 1,16,-1
 -444.34375 -38.21484375 l 1,17,-1
 -425.2109375 -38.216796875 l 1,18,-1
 -411.6796875 -51.74609375 l 1,19,-1
 -316.970703125 -146.455078125 l 1,20,-1
 -183.03125 -146.455078125 l 1,21,-1
 -152.0078125 -115.431640625 l 1,22,-1
 -273.09765625 5.65625 l 1,23,-1
 -273.09765625 24.79296875 l 1,24,-1
 -259.568359375 38.3203125 l 1,0,-1
EndSplineSet
EndChar

StartChar: bracketleft
Encoding: 91 91 63
Width: 500
Flags: W
LayerCount: 2
Fore
SplineSet
202.1640625 500.259765625 m 1,0,-1
 297.8359375 500.259765625 l 1,1,-1
 365.484375 432.611328125 l 1,2,-1
 365.484375 413.4765625 l 1,3,-1
 351.953125 399.9453125 l 1,4,-1
 332.8203125 399.9453125 l 1,5,-1
 278.69921875 454.06640625 l 1,6,-1
 221.30078125 454.06640625 l 1,7,-1
 180.7109375 413.4765625 l 1,8,-1
 180.7109375 -13.4765625 l 1,9,-1
 221.30078125 -54.06640625 l 1,10,-1
 278.701171875 -54.06640625 l 1,11,-1
 332.8203125 0.052734375 l 1,12,-1
 351.955078125 0.052734375 l 1,13,-1
 365.484375 -13.4765625 l 1,14,-1
 365.484375 -32.611328125 l 1,15,-1
 297.8359375 -100.259765625 l 1,16,-1
 202.1640625 -100.259765625 l 1,17,-1
 134.515625 -32.611328125 l 1,18,-1
 134.515625 432.611328125 l 1,19,-1
 202.1640625 500.259765625 l 1,0,-1
EndSplineSet
EndChar

StartChar: h
Encoding: 104 104 64
Width: 500
Flags: W
AnchorPoint: "vowel" 250 200 basechar 0
LayerCount: 2
Fore
SplineSet
163.896484375 -7.873046875 m 1,0,-1
 150.366210938 5.65625 l 1,1,-1
 150.366210938 24.7900390625 l 1,2,-1
 163.896484375 38.3203125 l 1,3,-1
 316.970703125 38.3203125 l 1,4,-1
 411.678710938 133.028320312 l 1,5,-1
 411.678710938 266.969726562 l 1,6,-1
 316.970703125 361.677734375 l 1,7,-1
 183.029296875 361.677734375 l 1,8,-1
 88.3212890625 266.969726562 l 1,9,-1
 88.3212890625 113.896484375 l 1,10,-1
 74.791015625 100.366210938 l 1,11,-1
 55.6572265625 100.366210938 l 1,12,-1
 42.126953125 113.896484375 l 1,13,-1
 42.126953125 286.103515625 l 1,14,-1
 163.896484375 407.873046875 l 1,15,-1
 336.103515625 407.873046875 l 1,16,-1
 457.873046875 286.103515625 l 1,17,-1
 457.873046875 113.896484375 l 1,18,-1
 336.103515625 -7.873046875 l 1,19,-1
 163.896484375 -7.873046875 l 1,0,-1
EndSplineSet
EndChar

StartChar: at
Encoding: 64 64 65
Width: 500
Flags: W
LayerCount: 2
Fore
SplineSet
163.896484375 407.873046875 m 1,0,-1
 336.103515625 407.873046875 l 1,1,-1
 336.103515625 407.87109375 l 1,2,-1
 444.34375 299.6328125 l 1,3,-1
 457.873046875 286.103515625 l 1,4,-1
 457.875 266.970703125 l 1,5,-1
 457.873046875 266.96875 l 1,6,-1
 457.873046875 133.03125 l 1,7,-1
 457.875 133.029296875 l 1,8,-1
 457.875 113.896484375 l 1,9,-1
 457.873046875 113.896484375 l 1,10,-1
 444.345703125 100.3671875 l 1,11,-1
 336.103515625 -7.873046875 l 1,12,-1
 163.896484375 -7.873046875 l 1,13,-1
 55.65625 100.3671875 l 1,14,-1
 42.126953125 113.896484375 l 1,15,-1
 42.126953125 133.029296875 l 1,16,-1
 42.126953125 266.96875 l 1,17,-1
 42.126953125 286.1015625 l 1,18,-1
 42.126953125 286.103515625 l 1,19,-1
 55.65625 299.6328125 l 1,20,-1
 163.896484375 407.87109375 l 1,21,-1
 163.896484375 407.873046875 l 1,0,-1
183.03125 361.677734375 m 1,22,-1
 88.3203125 266.970703125 l 1,23,-1
 88.3203125 266.96875 l 1,24,-1
 88.3203125 133.029296875 l 1,25,-1
 183.029296875 38.3203125 l 1,26,-1
 316.970703125 38.3203125 l 1,27,-1
 411.6796875 133.029296875 l 1,28,-1
 411.6796875 266.96875 l 1,29,-1
 411.6796875 266.970703125 l 1,30,-1
 316.970703125 361.677734375 l 1,31,-1
 183.03125 361.677734375 l 1,22,-1
202.1640625 315.484375 m 1,32,-1
 297.8359375 315.484375 l 1,33,-1
 365.484375 247.8359375 l 1,34,-1
 365.484375 152.1640625 l 1,35,-1
 297.8359375 84.515625 l 1,36,-1
 202.1640625 84.515625 l 1,37,-1
 134.515625 152.1640625 l 1,38,-1
 134.515625 247.8359375 l 1,39,-1
 202.1640625 315.484375 l 1,32,-1
221.30078125 269.291015625 m 1,40,-1
 180.7109375 228.701171875 l 1,41,-1
 180.7109375 171.30078125 l 1,42,-1
 221.30078125 130.7109375 l 1,43,-1
 278.69921875 130.7109375 l 1,44,-1
 319.2890625 171.30078125 l 1,45,-1
 319.2890625 228.69921875 l 1,46,-1
 278.69921875 269.2890625 l 1,47,-1
 278.69921875 269.291015625 l 1,48,-1
 221.30078125 269.291015625 l 1,40,-1
128.91015625 353.754882812 m 1,49,-1
 403.75390625 78.9111328125 l 1,50,-1
 403.752929688 59.7763671875 l 1,51,-1
 390.224609375 46.2470703125 l 1,52,-1
 371.088867188 46.2451171875 l 1,53,-1
 96.24609375 321.088867188 l 1,54,-1
 96.2470703125 340.223632812 l 1,55,-1
 109.776367188 353.752929688 l 1,56,-1
 128.91015625 353.754882812 l 1,49,-1
EndSplineSet
EndChar

StartChar: T
Encoding: 84 84 66
Width: 500
Flags: W
AnchorPoint: "vowel" 250 200 basechar 0
LayerCount: 2
Fore
SplineSet
163.896484375 407.873046875 m 1,0,-1
 183.030273438 407.875 l 1,1,-1
 196.559570312 394.344726562 l 1,2,-1
 196.559570312 375.209960938 l 1,3,-1
 183.030273438 361.6796875 l 1,4,-1
 88.3203125 266.969726562 l 1,5,-1
 88.3203125 133.030273438 l 1,6,-1
 183.030273438 38.3203125 l 1,7,-1
 316.969726562 38.3203125 l 1,8,-1
 411.6796875 133.030273438 l 1,9,-1
 411.6796875 266.96875 l 1,10,-1
 316.969726562 361.678710938 l 1,11,-1
 303.440429688 375.208984375 l 1,12,-1
 303.440429688 394.34375 l 1,13,-1
 316.969726562 407.874023438 l 1,14,-1
 336.102539062 407.874023438 l 1,15,-1
 349.6328125 394.34375 l 1,16,-1
 457.873046875 286.103515625 l 1,17,-1
 457.873046875 113.896484375 l 1,18,-1
 336.103515625 -7.8740234375 l 1,19,-1
 163.897460938 -7.8740234375 l 1,20,-1
 42.126953125 113.896484375 l 1,21,-1
 42.126953125 286.102539062 l 1,22,-1
 150.3671875 394.342773438 l 1,23,-1
 163.896484375 407.873046875 l 1,0,-1
EndSplineSet
EndChar

StartChar: greater
Encoding: 62 62 67
Width: 500
Flags: W
LayerCount: 2
Fore
SplineSet
202.1640625 315.484375 m 1,0,-1
 297.8359375 315.484375 l 1,1,-1
 365.484375 247.8359375 l 1,2,-1
 365.484375 152.1640625 l 1,3,-1
 297.8359375 84.515625 l 1,4,-1
 202.1640625 84.515625 l 1,5,-1
 148.044921875 138.634765625 l 1,6,-1
 134.515625 152.1640625 l 1,7,-1
 134.515625 171.30078125 l 1,8,-1
 148.046875 184.830078125 l 1,9,-1
 167.1796875 184.830078125 l 1,10,-1
 180.7109375 171.30078125 l 1,11,-1
 221.30078125 130.7109375 l 1,12,-1
 278.69921875 130.7109375 l 1,13,-1
 319.2890625 171.30078125 l 1,14,-1
 319.2890625 228.701171875 l 1,15,-1
 278.69921875 269.291015625 l 1,16,-1
 221.298828125 269.291015625 l 1,17,-1
 180.708984375 228.701171875 l 1,18,-1
 167.1796875 215.171875 l 1,19,-1
 148.044921875 215.171875 l 1,20,-1
 134.515625 228.701171875 l 1,21,-1
 134.515625 247.8359375 l 1,22,-1
 148.044921875 261.365234375 l 1,23,-1
 202.1640625 315.484375 l 1,0,-1
202.1640625 315.484375 m 1,24,-1
 297.8359375 315.484375 l 1,25,-1
 365.484375 247.8359375 l 1,26,-1
 365.484375 152.1640625 l 1,27,-1
 297.8359375 84.515625 l 1,28,-1
 202.1640625 84.515625 l 1,29,-1
 148.044921875 138.634765625 l 1,30,-1
 134.515625 152.1640625 l 1,31,-1
 134.515625 171.30078125 l 1,32,-1
 148.046875 184.830078125 l 1,33,-1
 167.1796875 184.830078125 l 1,34,-1
 180.7109375 171.30078125 l 1,35,-1
 221.30078125 130.7109375 l 1,36,-1
 278.69921875 130.7109375 l 1,37,-1
 319.2890625 171.30078125 l 1,38,-1
 319.2890625 228.701171875 l 1,39,-1
 278.69921875 269.291015625 l 1,40,-1
 221.298828125 269.291015625 l 1,41,-1
 180.708984375 228.701171875 l 1,42,-1
 167.1796875 215.171875 l 1,43,-1
 148.044921875 215.171875 l 1,44,-1
 134.515625 228.701171875 l 1,45,-1
 134.515625 247.8359375 l 1,46,-1
 148.044921875 261.365234375 l 1,47,-1
 202.1640625 315.484375 l 1,24,-1
EndSplineSet
EndChar

StartChar: asterisk
Encoding: 42 42 68
Width: 500
Flags: W
LayerCount: 2
Fore
SplineSet
240.43359375 407.873046875 m 1,0,-1
 259.56640625 407.873046875 l 1,1,-1
 273.09765625 394.345703125 l 1,2,-1
 273.09765625 255.76171875 l 1,3,-1
 371.08984375 353.75390625 l 1,4,-1
 390.224609375 353.75390625 l 1,5,-1
 403.75390625 340.224609375 l 1,6,-1
 403.755859375 321.08984375 l 1,7,-1
 282.6640625 200 l 1,8,-1
 403.75390625 78.91015625 l 1,9,-1
 403.75390625 59.775390625 l 1,10,-1
 390.224609375 46.24609375 l 1,11,-1
 371.08984375 46.244140625 l 1,12,-1
 273.09765625 144.236328125 l 1,13,-1
 273.09765625 5.65625 l 1,14,-1
 259.56640625 -7.873046875 l 1,15,-1
 240.43359375 -7.873046875 l 1,16,-1
 226.90234375 5.65625 l 1,17,-1
 226.90234375 144.23828125 l 1,18,-1
 128.91015625 46.24609375 l 1,19,-1
 109.775390625 46.24609375 l 1,20,-1
 96.24609375 59.775390625 l 1,21,-1
 96.244140625 78.91015625 l 1,22,-1
 217.3359375 200 l 1,23,-1
 96.24609375 321.08984375 l 1,24,-1
 96.24609375 340.224609375 l 1,25,-1
 109.775390625 353.75390625 l 1,26,-1
 128.91015625 353.755859375 l 1,27,-1
 226.90234375 255.763671875 l 1,28,-1
 226.90234375 394.34375 l 1,29,-1
 240.43359375 407.873046875 l 1,0,-1
EndSplineSet
EndChar

StartChar: three
Encoding: 51 51 69
Width: 500
Flags: W
LayerCount: 2
Fore
SplineSet
336.103515625 407.873046875 m 1,0,-1
 349.633789062 394.342773438 l 1,1,-1
 349.633789062 375.208984375 l 1,2,-1
 336.103515625 361.678710938 l 1,3,-1
 183.029296875 361.678710938 l 1,4,-1
 88.3212890625 266.970703125 l 1,5,-1
 88.3212890625 133.030273438 l 1,6,-1
 183.029296875 38.322265625 l 1,7,-1
 316.970703125 38.322265625 l 1,8,-1
 411.678710938 133.030273438 l 1,9,-1
 411.678710938 286.103515625 l 1,10,-1
 425.208984375 299.633789062 l 1,11,-1
 444.342773438 299.633789062 l 1,12,-1
 457.873046875 286.103515625 l 1,13,-1
 457.873046875 113.896484375 l 1,14,-1
 336.103515625 -7.873046875 l 1,15,-1
 163.896484375 -7.873046875 l 1,16,-1
 42.126953125 113.896484375 l 1,17,-1
 42.126953125 286.103515625 l 1,18,-1
 163.896484375 407.873046875 l 1,19,-1
 336.103515625 407.873046875 l 1,0,-1
202.1640625 315.484375 m 1,20,-1
 297.8359375 315.484375 l 1,21,-1
 365.484375 247.8359375 l 1,22,-1
 365.484375 152.1640625 l 1,23,-1
 297.8359375 84.515625 l 1,24,-1
 202.1640625 84.515625 l 1,25,-1
 134.515625 152.1640625 l 1,26,-1
 134.515625 247.8359375 l 1,27,-1
 202.1640625 315.484375 l 1,20,-1
221.30078125 269.291015625 m 1,28,-1
 180.7109375 228.701171875 l 1,29,-1
 180.7109375 171.30078125 l 1,30,-1
 221.30078125 130.7109375 l 1,31,-1
 278.69921875 130.7109375 l 1,32,-1
 319.2890625 171.30078125 l 1,33,-1
 319.2890625 228.69921875 l 1,34,-1
 278.69921875 269.2890625 l 1,35,-1
 278.69921875 269.291015625 l 1,36,-1
 221.30078125 269.291015625 l 1,28,-1
EndSplineSet
EndChar

StartChar: quotesingle
Encoding: 39 39 70
Width: 500
Flags: W
LayerCount: 2
Fore
SplineSet
240.43359375 223.09765625 m 1,0,-1
 259.56640625 223.09765625 l 1,1,-1
 273.09765625 209.56640625 l 1,2,-1
 273.09765625 190.43359375 l 1,3,-1
 259.56640625 176.90234375 l 1,4,-1
 240.43359375 176.90234375 l 1,5,-1
 226.90234375 190.43359375 l 1,6,-1
 226.90234375 209.56640625 l 1,7,-1
 240.43359375 223.09765625 l 1,0,-1
EndSplineSet
EndChar

StartChar: ampersand
Encoding: 38 38 71
Width: 500
Flags: W
LayerCount: 2
Fore
SplineSet
163.896484375 407.87109375 m 1,0,-1
 336.103515625 407.87109375 l 1,1,-1
 457.873046875 286.103515625 l 1,2,-1
 457.873046875 113.896484375 l 1,3,-1
 336.103515625 -7.873046875 l 1,4,-1
 163.896484375 -7.873046875 l 1,5,-1
 55.65625 100.3671875 l 1,6,-1
 42.126953125 113.896484375 l 1,7,-1
 42.126953125 133.029296875 l 1,8,-1
 55.65625 146.560546875 l 1,9,-1
 74.7890625 146.560546875 l 1,10,-1
 88.3203125 133.029296875 l 1,11,-1
 183.029296875 38.3203125 l 1,12,-1
 316.970703125 38.3203125 l 1,13,-1
 411.6796875 133.029296875 l 1,14,-1
 411.6796875 266.96875 l 1,15,-1
 316.970703125 361.677734375 l 1,16,-1
 183.03125 361.677734375 l 1,17,-1
 88.3203125 266.96875 l 1,18,-1
 74.791015625 253.4375 l 1,19,-1
 55.65625 253.4375 l 1,20,-1
 42.126953125 266.96875 l 1,21,-1
 42.126953125 286.1015625 l 1,22,-1
 55.65625 299.6328125 l 1,23,-1
 163.896484375 407.87109375 l 1,0,-1
202.1640625 315.484375 m 1,24,-1
 297.8359375 315.484375 l 1,25,-1
 365.484375 247.8359375 l 1,26,-1
 365.484375 152.1640625 l 1,27,-1
 297.8359375 84.515625 l 1,28,-1
 202.1640625 84.515625 l 1,29,-1
 148.044921875 138.634765625 l 1,30,-1
 134.515625 152.1640625 l 1,31,-1
 134.515625 171.30078125 l 1,32,-1
 148.046875 184.830078125 l 1,33,-1
 167.1796875 184.830078125 l 1,34,-1
 180.7109375 171.30078125 l 1,35,-1
 221.30078125 130.7109375 l 1,36,-1
 278.69921875 130.7109375 l 1,37,-1
 319.2890625 171.30078125 l 1,38,-1
 319.2890625 228.701171875 l 1,39,-1
 278.69921875 269.291015625 l 1,40,-1
 221.298828125 269.291015625 l 1,41,-1
 180.708984375 228.701171875 l 1,42,-1
 167.1796875 215.171875 l 1,43,-1
 148.044921875 215.171875 l 1,44,-1
 134.515625 228.701171875 l 1,45,-1
 134.515625 247.8359375 l 1,46,-1
 148.044921875 261.365234375 l 1,47,-1
 202.1640625 315.484375 l 1,24,-1
240.43359375 223.09765625 m 1,48,-1
 259.56640625 223.09765625 l 1,49,-1
 273.09765625 209.56640625 l 1,50,-1
 273.09765625 190.43359375 l 1,51,-1
 259.56640625 176.90234375 l 1,52,-1
 240.43359375 176.90234375 l 1,53,-1
 226.90234375 190.43359375 l 1,54,-1
 226.90234375 209.56640625 l 1,55,-1
 240.43359375 223.09765625 l 1,48,-1
EndSplineSet
EndChar

StartChar: two
Encoding: 50 50 72
Width: 500
Flags: W
LayerCount: 2
Fore
SplineSet
163.896484375 407.873046875 m 1,0,-1
 183.030273438 407.875 l 1,1,-1
 196.559570312 394.344726562 l 1,2,-1
 196.559570312 375.209960938 l 1,3,-1
 183.030273438 361.6796875 l 1,4,-1
 88.3203125 266.969726562 l 1,5,-1
 88.3203125 133.030273438 l 1,6,-1
 183.030273438 38.3203125 l 1,7,-1
 316.969726562 38.3203125 l 1,8,-1
 411.6796875 133.030273438 l 1,9,-1
 411.6796875 266.96875 l 1,10,-1
 316.969726562 361.678710938 l 1,11,-1
 303.440429688 375.208984375 l 1,12,-1
 303.440429688 394.34375 l 1,13,-1
 316.969726562 407.874023438 l 1,14,-1
 336.102539062 407.874023438 l 1,15,-1
 349.6328125 394.34375 l 1,16,-1
 457.873046875 286.103515625 l 1,17,-1
 457.873046875 113.896484375 l 1,18,-1
 336.103515625 -7.8740234375 l 1,19,-1
 163.897460938 -7.8740234375 l 1,20,-1
 42.126953125 113.896484375 l 1,21,-1
 42.126953125 286.102539062 l 1,22,-1
 150.3671875 394.342773438 l 1,23,-1
 163.896484375 407.873046875 l 1,0,-1
202.1640625 315.484375 m 1,24,-1
 297.8359375 315.484375 l 1,25,-1
 365.484375 247.8359375 l 1,26,-1
 365.484375 152.1640625 l 1,27,-1
 297.8359375 84.515625 l 1,28,-1
 202.1640625 84.515625 l 1,29,-1
 134.515625 152.1640625 l 1,30,-1
 134.515625 247.8359375 l 1,31,-1
 202.1640625 315.484375 l 1,24,-1
221.30078125 269.291015625 m 1,32,-1
 180.7109375 228.701171875 l 1,33,-1
 180.7109375 171.30078125 l 1,34,-1
 221.30078125 130.7109375 l 1,35,-1
 278.69921875 130.7109375 l 1,36,-1
 319.2890625 171.30078125 l 1,37,-1
 319.2890625 228.69921875 l 1,38,-1
 278.69921875 269.2890625 l 1,39,-1
 278.69921875 269.291015625 l 1,40,-1
 221.30078125 269.291015625 l 1,32,-1
EndSplineSet
EndChar

StartChar: equal
Encoding: 61 61 73
Width: 500
Flags: W
LayerCount: 2
Fore
SplineSet
202.1640625 315.484375 m 1,0,-1
 297.8359375 315.484375 l 1,1,-1
 351.955078125 261.365234375 l 1,2,-1
 365.484375 247.8359375 l 1,3,-1
 365.484375 228.69921875 l 1,4,-1
 351.953125 215.169921875 l 1,5,-1
 332.8203125 215.169921875 l 1,6,-1
 319.2890625 228.69921875 l 1,7,-1
 319.2890625 228.701171875 l 1,8,-1
 278.69921875 269.2890625 l 1,9,-1
 278.69921875 269.291015625 l 1,10,-1
 221.298828125 269.291015625 l 1,11,-1
 180.708984375 228.701171875 l 1,12,-1
 167.1796875 215.171875 l 1,13,-1
 148.044921875 215.171875 l 1,14,-1
 134.515625 228.701171875 l 1,15,-1
 134.515625 247.8359375 l 1,16,-1
 148.044921875 261.365234375 l 1,17,-1
 202.1640625 315.484375 l 1,0,-1
148.046875 184.830078125 m 1,18,-1
 167.1796875 184.830078125 l 1,19,-1
 180.7109375 171.30078125 l 1,20,-1
 180.7109375 171.298828125 l 1,21,-1
 221.30078125 130.7109375 l 1,22,-1
 221.30078125 130.708984375 l 1,23,-1
 278.701171875 130.708984375 l 1,24,-1
 319.291015625 171.298828125 l 1,25,-1
 332.8203125 184.828125 l 1,26,-1
 351.955078125 184.828125 l 1,27,-1
 365.484375 171.298828125 l 1,28,-1
 365.484375 152.1640625 l 1,29,-1
 351.955078125 138.634765625 l 1,30,-1
 297.8359375 84.515625 l 1,31,-1
 202.1640625 84.515625 l 1,32,-1
 148.044921875 138.634765625 l 1,33,-1
 134.515625 152.1640625 l 1,34,-1
 134.515625 171.30078125 l 1,35,-1
 148.046875 184.830078125 l 1,18,-1
EndSplineSet
EndChar

StartChar: plus
Encoding: 43 43 74
Width: 500
Flags: W
LayerCount: 2
Fore
SplineSet
240.43359375 407.873046875 m 1,0,-1
 259.56640625 407.873046875 l 1,1,-1
 273.09765625 394.345703125 l 1,2,-1
 273.09765625 223.09765625 l 1,3,-1
 444.34375 223.09765625 l 1,4,-1
 457.873046875 209.56640625 l 1,5,-1
 457.873046875 190.43359375 l 1,6,-1
 444.345703125 176.90234375 l 1,7,-1
 273.09765625 176.90234375 l 1,8,-1
 273.09765625 5.65625 l 1,9,-1
 259.56640625 -7.873046875 l 1,10,-1
 240.43359375 -7.873046875 l 1,11,-1
 226.90234375 5.65625 l 1,12,-1
 226.90234375 176.90234375 l 1,13,-1
 55.65625 176.90234375 l 1,14,-1
 42.126953125 190.43359375 l 1,15,-1
 42.126953125 209.56640625 l 1,16,-1
 55.65625 223.09765625 l 1,17,-1
 226.90234375 223.09765625 l 1,18,-1
 226.90234375 394.34375 l 1,19,-1
 240.43359375 407.873046875 l 1,0,-1
EndSplineSet
EndChar

StartChar: question
Encoding: 63 63 75
Width: 500
Flags: W
LayerCount: 2
Fore
SplineSet
240.43359375 407.873046875 m 1,0,-1
 259.56640625 407.873046875 l 1,1,-1
 273.09765625 394.34375 l 1,2,-1
 273.09765625 375.208984375 l 1,3,-1
 259.56640625 361.6796875 l 1,4,-1
 240.43359375 361.6796875 l 1,5,-1
 226.90234375 375.208984375 l 1,6,-1
 226.90234375 394.34375 l 1,7,-1
 240.43359375 407.873046875 l 1,0,-1
240.43359375 223.09765625 m 1,8,-1
 259.56640625 223.09765625 l 1,9,-1
 273.09765625 209.56640625 l 1,10,-1
 273.09765625 190.43359375 l 1,11,-1
 259.56640625 176.90234375 l 1,12,-1
 240.43359375 176.90234375 l 1,13,-1
 226.90234375 190.43359375 l 1,14,-1
 226.90234375 209.56640625 l 1,15,-1
 240.43359375 223.09765625 l 1,8,-1
240.43359375 38.3203125 m 1,16,-1
 259.56640625 38.3203125 l 1,17,-1
 273.09765625 24.791015625 l 1,18,-1
 273.09765625 5.65625 l 1,19,-1
 259.56640625 -7.873046875 l 1,20,-1
 240.43359375 -7.873046875 l 1,21,-1
 226.90234375 5.65625 l 1,22,-1
 226.90234375 24.791015625 l 1,23,-1
 240.43359375 38.3203125 l 1,16,-1
EndSplineSet
EndChar

StartChar: dollar
Encoding: 36 36 76
Width: 500
Flags: W
LayerCount: 2
Fore
SplineSet
163.896484375 407.873046875 m 1,0,-1
 183.030273438 407.875 l 1,1,-1
 196.559570312 394.344726562 l 1,2,-1
 196.559570312 375.209960938 l 1,3,-1
 183.030273438 361.6796875 l 1,4,-1
 88.3203125 266.969726562 l 1,5,-1
 88.3203125 133.030273438 l 1,6,-1
 183.030273438 38.3203125 l 1,7,-1
 316.969726562 38.3203125 l 1,8,-1
 411.6796875 133.030273438 l 1,9,-1
 411.6796875 266.96875 l 1,10,-1
 316.969726562 361.678710938 l 1,11,-1
 303.440429688 375.208984375 l 1,12,-1
 303.440429688 394.34375 l 1,13,-1
 316.969726562 407.874023438 l 1,14,-1
 336.102539062 407.874023438 l 1,15,-1
 349.6328125 394.34375 l 1,16,-1
 457.873046875 286.103515625 l 1,17,-1
 457.873046875 113.896484375 l 1,18,-1
 336.103515625 -7.8740234375 l 1,19,-1
 163.897460938 -7.8740234375 l 1,20,-1
 42.126953125 113.896484375 l 1,21,-1
 42.126953125 286.102539062 l 1,22,-1
 150.3671875 394.342773438 l 1,23,-1
 163.896484375 407.873046875 l 1,0,-1
128.91015625 353.754882812 m 1,24,-1
 403.75390625 78.9111328125 l 1,25,-1
 403.752929688 59.7763671875 l 1,26,-1
 390.224609375 46.2470703125 l 1,27,-1
 371.088867188 46.2451171875 l 1,28,-1
 96.24609375 321.088867188 l 1,29,-1
 96.2470703125 340.223632812 l 1,30,-1
 109.776367188 353.752929688 l 1,31,-1
 128.91015625 353.754882812 l 1,24,-1
259.567382812 592.649414062 m 1,32,-1
 273.096679688 579.119140625 l 1,33,-1
 273.096679688 -179.120117188 l 1,34,-1
 259.567382812 -192.650390625 l 1,35,-1
 240.432617188 -192.650390625 l 1,36,-1
 226.903320312 -179.120117188 l 1,37,-1
 226.903320312 579.120117188 l 1,38,-1
 240.432617188 592.650390625 l 1,39,-1
 259.567382812 592.649414062 l 1,32,-1
EndSplineSet
EndChar

StartChar: zero
Encoding: 48 48 77
Width: 500
Flags: W
LayerCount: 2
Fore
SplineSet
202.1640625 315.484375 m 1,0,-1
 297.8359375 315.484375 l 1,1,-1
 365.484375 247.8359375 l 1,2,-1
 365.484375 152.1640625 l 1,3,-1
 297.8359375 84.515625 l 1,4,-1
 202.1640625 84.515625 l 1,5,-1
 134.515625 152.1640625 l 1,6,-1
 134.515625 247.8359375 l 1,7,-1
 202.1640625 315.484375 l 1,0,-1
221.30078125 269.291015625 m 1,8,-1
 180.7109375 228.701171875 l 1,9,-1
 180.7109375 171.30078125 l 1,10,-1
 221.30078125 130.7109375 l 1,11,-1
 278.69921875 130.7109375 l 1,12,-1
 319.2890625 171.30078125 l 1,13,-1
 319.2890625 228.69921875 l 1,14,-1
 278.69921875 269.2890625 l 1,15,-1
 278.69921875 269.291015625 l 1,16,-1
 221.30078125 269.291015625 l 1,8,-1
EndSplineSet
EndChar

StartChar: one
Encoding: 49 49 78
Width: 500
Flags: W
LayerCount: 2
Fore
SplineSet
42.126953125 286.103515625 m 1,0,-1
 55.6572265625 299.633789062 l 1,1,-1
 74.791015625 299.633789062 l 1,2,-1
 88.3212890625 286.103515625 l 1,3,-1
 88.3212890625 133.030273438 l 1,4,-1
 183.029296875 38.3212890625 l 1,5,-1
 316.969726562 38.3212890625 l 1,6,-1
 411.677734375 133.029296875 l 1,7,-1
 411.677734375 266.970703125 l 1,8,-1
 316.969726562 361.678710938 l 1,9,-1
 163.896484375 361.678710938 l 1,10,-1
 150.366210938 375.208984375 l 1,11,-1
 150.366210938 394.342773438 l 1,12,-1
 163.896484375 407.873046875 l 1,13,-1
 336.103515625 407.873046875 l 1,14,-1
 457.873046875 286.103515625 l 1,15,-1
 457.873046875 113.896484375 l 1,16,-1
 336.103515625 -7.873046875 l 1,17,-1
 163.896484375 -7.873046875 l 1,18,-1
 42.126953125 113.896484375 l 1,19,-1
 42.126953125 286.103515625 l 1,0,-1
202.1640625 315.484375 m 1,20,-1
 297.8359375 315.484375 l 1,21,-1
 365.484375 247.8359375 l 1,22,-1
 365.484375 152.1640625 l 1,23,-1
 297.8359375 84.515625 l 1,24,-1
 202.1640625 84.515625 l 1,25,-1
 134.515625 152.1640625 l 1,26,-1
 134.515625 247.8359375 l 1,27,-1
 202.1640625 315.484375 l 1,20,-1
221.30078125 269.291015625 m 1,28,-1
 180.7109375 228.701171875 l 1,29,-1
 180.7109375 171.30078125 l 1,30,-1
 221.30078125 130.7109375 l 1,31,-1
 278.69921875 130.7109375 l 1,32,-1
 319.2890625 171.30078125 l 1,33,-1
 319.2890625 228.69921875 l 1,34,-1
 278.69921875 269.2890625 l 1,35,-1
 278.69921875 269.291015625 l 1,36,-1
 221.30078125 269.291015625 l 1,28,-1
EndSplineSet
EndChar

StartChar: percent
Encoding: 37 37 79
Width: 500
Flags: W
LayerCount: 2
Fore
SplineSet
371.08984375 353.75390625 m 1,0,-1
 390.224609375 353.75390625 l 1,1,-1
 403.75390625 340.224609375 l 1,2,-1
 403.755859375 321.08984375 l 1,3,-1
 347.9921875 265.328125 l 1,4,-1
 365.484375 247.8359375 l 1,5,-1
 365.484375 152.1640625 l 1,6,-1
 297.8359375 84.515625 l 1,7,-1
 202.1640625 84.515625 l 1,8,-1
 184.671875 102.0078125 l 1,9,-1
 128.91015625 46.24609375 l 1,10,-1
 109.775390625 46.24609375 l 1,11,-1
 96.24609375 59.775390625 l 1,12,-1
 96.244140625 78.91015625 l 1,13,-1
 152.0078125 134.671875 l 1,14,-1
 134.515625 152.1640625 l 1,15,-1
 134.515625 247.8359375 l 1,16,-1
 202.1640625 315.484375 l 1,17,-1
 297.8359375 315.484375 l 1,18,-1
 315.328125 297.9921875 l 1,19,-1
 371.08984375 353.75390625 l 1,0,-1
221.30078125 269.291015625 m 1,20,-1
 180.7109375 228.701171875 l 1,21,-1
 180.7109375 171.30078125 l 1,22,-1
 184.673828125 167.337890625 l 1,23,-1
 282.662109375 265.326171875 l 1,24,-1
 278.69921875 269.2890625 l 1,25,-1
 278.69921875 269.291015625 l 1,26,-1
 221.30078125 269.291015625 l 1,20,-1
315.326171875 232.662109375 m 1,27,-1
 217.337890625 134.673828125 l 1,28,-1
 221.30078125 130.7109375 l 1,29,-1
 278.69921875 130.7109375 l 1,30,-1
 319.2890625 171.30078125 l 1,31,-1
 319.2890625 228.69921875 l 1,32,-1
 315.326171875 232.662109375 l 1,27,-1
EndSplineSet
EndChar

StartChar: comma
Encoding: 44 44 80
Width: 500
Flags: W
LayerCount: 2
Fore
SplineSet
55.65625 223.09765625 m 1,0,-1
 74.791015625 223.09765625 l 1,1,-1
 88.3203125 209.56640625 l 1,2,-1
 88.3203125 190.43359375 l 1,3,-1
 74.791015625 176.90234375 l 1,4,-1
 55.65625 176.90234375 l 1,5,-1
 42.126953125 190.43359375 l 1,6,-1
 42.126953125 209.56640625 l 1,7,-1
 55.65625 223.09765625 l 1,0,-1
240.43359375 223.09765625 m 1,8,-1
 259.56640625 223.09765625 l 1,9,-1
 273.09765625 209.56640625 l 1,10,-1
 273.09765625 190.43359375 l 1,11,-1
 259.56640625 176.90234375 l 1,12,-1
 240.43359375 176.90234375 l 1,13,-1
 226.90234375 190.43359375 l 1,14,-1
 226.90234375 209.56640625 l 1,15,-1
 240.43359375 223.09765625 l 1,8,-1
425.208984375 223.09765625 m 1,16,-1
 444.34375 223.09765625 l 1,17,-1
 457.873046875 209.56640625 l 1,18,-1
 457.873046875 190.43359375 l 1,19,-1
 444.34375 176.90234375 l 1,20,-1
 425.208984375 176.90234375 l 1,21,-1
 411.6796875 190.43359375 l 1,22,-1
 411.6796875 209.56640625 l 1,23,-1
 425.208984375 223.09765625 l 1,16,-1
EndSplineSet
EndChar

StartChar: exclam
Encoding: 33 33 81
Width: 500
Flags: W
LayerCount: 2
Fore
SplineSet
240.43359375 407.873046875 m 1,0,-1
 259.56640625 407.873046875 l 1,1,-1
 273.09765625 394.34375 l 1,2,-1
 273.09765625 375.208984375 l 1,3,-1
 259.56640625 361.6796875 l 1,4,-1
 240.43359375 361.6796875 l 1,5,-1
 226.90234375 375.208984375 l 1,6,-1
 226.90234375 394.34375 l 1,7,-1
 240.43359375 407.873046875 l 1,0,-1
240.43359375 38.3203125 m 1,8,-1
 259.56640625 38.3203125 l 1,9,-1
 273.09765625 24.791015625 l 1,10,-1
 273.09765625 5.65625 l 1,11,-1
 259.56640625 -7.873046875 l 1,12,-1
 240.43359375 -7.873046875 l 1,13,-1
 226.90234375 5.65625 l 1,14,-1
 226.90234375 24.791015625 l 1,15,-1
 240.43359375 38.3203125 l 1,8,-1
EndSplineSet
EndChar

StartChar: five
Encoding: 53 53 82
Width: 500
Flags: W
LayerCount: 2
Fore
SplineSet
163.896484375 407.873046875 m 1,0,-1
 336.103515625 407.873046875 l 1,1,-1
 336.103515625 407.87109375 l 1,2,-1
 444.34375 299.6328125 l 1,3,-1
 457.873046875 286.103515625 l 1,4,-1
 457.875 266.970703125 l 1,5,-1
 457.873046875 266.96875 l 1,6,-1
 457.873046875 133.03125 l 1,7,-1
 457.875 133.029296875 l 1,8,-1
 457.875 113.896484375 l 1,9,-1
 457.873046875 113.896484375 l 1,10,-1
 444.345703125 100.3671875 l 1,11,-1
 336.103515625 -7.873046875 l 1,12,-1
 163.896484375 -7.873046875 l 1,13,-1
 55.65625 100.3671875 l 1,14,-1
 42.126953125 113.896484375 l 1,15,-1
 42.126953125 133.029296875 l 1,16,-1
 42.126953125 266.96875 l 1,17,-1
 42.126953125 286.1015625 l 1,18,-1
 42.126953125 286.103515625 l 1,19,-1
 55.65625 299.6328125 l 1,20,-1
 163.896484375 407.87109375 l 1,21,-1
 163.896484375 407.873046875 l 1,0,-1
183.03125 361.677734375 m 1,22,-1
 88.3203125 266.970703125 l 1,23,-1
 88.3203125 266.96875 l 1,24,-1
 88.3203125 133.029296875 l 1,25,-1
 183.029296875 38.3203125 l 1,26,-1
 316.970703125 38.3203125 l 1,27,-1
 411.6796875 133.029296875 l 1,28,-1
 411.6796875 266.96875 l 1,29,-1
 411.6796875 266.970703125 l 1,30,-1
 316.970703125 361.677734375 l 1,31,-1
 183.03125 361.677734375 l 1,22,-1
202.1640625 315.484375 m 1,32,-1
 297.8359375 315.484375 l 1,33,-1
 365.484375 247.8359375 l 1,34,-1
 365.484375 152.1640625 l 1,35,-1
 297.8359375 84.515625 l 1,36,-1
 202.1640625 84.515625 l 1,37,-1
 134.515625 152.1640625 l 1,38,-1
 134.515625 247.8359375 l 1,39,-1
 202.1640625 315.484375 l 1,32,-1
221.30078125 269.291015625 m 1,40,-1
 180.7109375 228.701171875 l 1,41,-1
 180.7109375 171.30078125 l 1,42,-1
 221.30078125 130.7109375 l 1,43,-1
 278.69921875 130.7109375 l 1,44,-1
 319.2890625 171.30078125 l 1,45,-1
 319.2890625 228.69921875 l 1,46,-1
 278.69921875 269.2890625 l 1,47,-1
 278.69921875 269.291015625 l 1,48,-1
 221.30078125 269.291015625 l 1,40,-1
EndSplineSet
EndChar

StartChar: less
Encoding: 60 60 83
Width: 500
Flags: W
LayerCount: 2
Fore
SplineSet
202.1640625 315.484375 m 1,0,-1
 297.8359375 315.484375 l 1,1,-1
 351.955078125 261.365234375 l 1,2,-1
 365.484375 247.8359375 l 1,3,-1
 365.484375 228.69921875 l 1,4,-1
 351.953125 215.169921875 l 1,5,-1
 332.8203125 215.169921875 l 1,6,-1
 319.2890625 228.69921875 l 1,7,-1
 278.69921875 269.2890625 l 1,8,-1
 221.30078125 269.2890625 l 1,9,-1
 180.7109375 228.69921875 l 1,10,-1
 180.7109375 171.298828125 l 1,11,-1
 221.30078125 130.708984375 l 1,12,-1
 278.701171875 130.708984375 l 1,13,-1
 319.291015625 171.298828125 l 1,14,-1
 332.8203125 184.828125 l 1,15,-1
 351.955078125 184.828125 l 1,16,-1
 365.484375 171.298828125 l 1,17,-1
 365.484375 152.1640625 l 1,18,-1
 351.955078125 138.634765625 l 1,19,-1
 297.8359375 84.515625 l 1,20,-1
 202.1640625 84.515625 l 1,21,-1
 134.515625 152.1640625 l 1,22,-1
 134.515625 247.8359375 l 1,23,-1
 202.1640625 315.484375 l 1,0,-1
EndSplineSet
EndChar

StartChar: semicolon
Encoding: 59 59 84
Width: 500
Flags: W
LayerCount: 2
Fore
SplineSet
55.65625 223.09765625 m 1,0,-1
 74.791015625 223.09765625 l 1,1,-1
 88.3203125 209.56640625 l 1,2,-1
 88.3203125 190.43359375 l 1,3,-1
 74.791015625 176.90234375 l 1,4,-1
 55.65625 176.90234375 l 1,5,-1
 42.126953125 190.43359375 l 1,6,-1
 42.126953125 209.56640625 l 1,7,-1
 55.65625 223.09765625 l 1,0,-1
240.43359375 223.09765625 m 1,8,-1
 259.56640625 223.09765625 l 1,9,-1
 273.09765625 209.56640625 l 1,10,-1
 273.09765625 190.43359375 l 1,11,-1
 259.56640625 176.90234375 l 1,12,-1
 240.43359375 176.90234375 l 1,13,-1
 226.90234375 190.43359375 l 1,14,-1
 226.90234375 209.56640625 l 1,15,-1
 240.43359375 223.09765625 l 1,8,-1
425.208984375 223.09765625 m 1,16,-1
 444.34375 223.09765625 l 1,17,-1
 457.873046875 209.56640625 l 1,18,-1
 457.873046875 190.43359375 l 1,19,-1
 444.34375 176.90234375 l 1,20,-1
 425.208984375 176.90234375 l 1,21,-1
 411.6796875 190.43359375 l 1,22,-1
 411.6796875 209.56640625 l 1,23,-1
 425.208984375 223.09765625 l 1,16,-1
202.1640625 315.484375 m 1,24,-1
 297.8359375 315.484375 l 1,25,-1
 365.484375 247.8359375 l 1,26,-1
 365.484375 152.1640625 l 1,27,-1
 297.8359375 84.515625 l 1,28,-1
 202.1640625 84.515625 l 1,29,-1
 134.515625 152.1640625 l 1,30,-1
 134.515625 247.8359375 l 1,31,-1
 202.1640625 315.484375 l 1,24,-1
221.30078125 269.291015625 m 1,32,-1
 180.7109375 228.701171875 l 1,33,-1
 180.7109375 171.30078125 l 1,34,-1
 221.30078125 130.7109375 l 1,35,-1
 278.69921875 130.7109375 l 1,36,-1
 319.2890625 171.30078125 l 1,37,-1
 319.2890625 228.69921875 l 1,38,-1
 278.69921875 269.2890625 l 1,39,-1
 278.69921875 269.291015625 l 1,40,-1
 221.30078125 269.291015625 l 1,32,-1
EndSplineSet
EndChar

StartChar: slash
Encoding: 47 47 85
Width: 500
Flags: W
LayerCount: 2
Fore
SplineSet
403.754882812 321.08984375 m 1,0,-1
 128.911132812 46.24609375 l 1,1,-1
 109.776367188 46.2470703125 l 1,2,-1
 96.2470703125 59.775390625 l 1,3,-1
 96.2451171875 78.9111328125 l 1,4,-1
 371.088867188 353.75390625 l 1,5,-1
 390.223632812 353.752929688 l 1,6,-1
 403.752929688 340.223632812 l 1,7,-1
 403.754882812 321.08984375 l 1,0,-1
EndSplineSet
EndChar

StartChar: four
Encoding: 52 52 86
Width: 500
Flags: W
LayerCount: 2
Fore
SplineSet
42.126953125 113.896484375 m 1,0,-1
 42.1259765625 133.030273438 l 1,1,-1
 55.65625 146.559570312 l 1,2,-1
 74.7900390625 146.559570312 l 1,3,-1
 88.3203125 133.030273438 l 1,4,-1
 183.030273438 38.3203125 l 1,5,-1
 316.969726562 38.3203125 l 1,6,-1
 411.6796875 133.030273438 l 1,7,-1
 411.6796875 266.967773438 l 1,8,-1
 316.969726562 361.677734375 l 1,9,-1
 183.03125 361.677734375 l 1,10,-1
 88.3212890625 266.967773438 l 1,11,-1
 74.791015625 253.438476562 l 1,12,-1
 55.65625 253.438476562 l 1,13,-1
 42.1259765625 266.967773438 l 1,14,-1
 42.1259765625 286.1015625 l 1,15,-1
 55.65625 299.631835938 l 1,16,-1
 163.896484375 407.872070312 l 1,17,-1
 336.103515625 407.872070312 l 1,18,-1
 457.874023438 286.102539062 l 1,19,-1
 457.874023438 113.897460938 l 1,20,-1
 336.103515625 -7.873046875 l 1,21,-1
 163.897460938 -7.873046875 l 1,22,-1
 55.6572265625 100.3671875 l 1,23,-1
 42.126953125 113.896484375 l 1,0,-1
202.1640625 315.484375 m 1,24,-1
 297.8359375 315.484375 l 1,25,-1
 365.484375 247.8359375 l 1,26,-1
 365.484375 152.1640625 l 1,27,-1
 297.8359375 84.515625 l 1,28,-1
 202.1640625 84.515625 l 1,29,-1
 134.515625 152.1640625 l 1,30,-1
 134.515625 247.8359375 l 1,31,-1
 202.1640625 315.484375 l 1,24,-1
221.30078125 269.291015625 m 1,32,-1
 180.7109375 228.701171875 l 1,33,-1
 180.7109375 171.30078125 l 1,34,-1
 221.30078125 130.7109375 l 1,35,-1
 278.69921875 130.7109375 l 1,36,-1
 319.2890625 171.30078125 l 1,37,-1
 319.2890625 228.69921875 l 1,38,-1
 278.69921875 269.2890625 l 1,39,-1
 278.69921875 269.291015625 l 1,40,-1
 221.30078125 269.291015625 l 1,32,-1
EndSplineSet
EndChar

StartChar: six
Encoding: 54 54 87
Width: 500
Flags: W
LayerCount: 2
Fore
SplineSet
457.873046875 286.103515625 m 1,0,-1
 457.875 266.969726562 l 1,1,-1
 444.344726562 253.440429688 l 1,2,-1
 425.209960938 253.440429688 l 1,3,-1
 411.6796875 266.969726562 l 1,4,-1
 316.969726562 361.6796875 l 1,5,-1
 183.030273438 361.6796875 l 1,6,-1
 88.3203125 266.969726562 l 1,7,-1
 88.3203125 133.030273438 l 1,8,-1
 183.030273438 38.3203125 l 1,9,-1
 316.969726562 38.3203125 l 1,10,-1
 411.6796875 133.030273438 l 1,11,-1
 425.209960938 146.559570312 l 1,12,-1
 444.344726562 146.559570312 l 1,13,-1
 457.875 133.030273438 l 1,14,-1
 457.875 113.897460938 l 1,15,-1
 444.344726562 100.3671875 l 1,16,-1
 336.10546875 -7.873046875 l 1,17,-1
 163.897460938 -7.873046875 l 1,18,-1
 42.126953125 113.896484375 l 1,19,-1
 42.126953125 286.102539062 l 1,20,-1
 163.897460938 407.873046875 l 1,21,-1
 336.102539062 407.873046875 l 1,22,-1
 444.342773438 299.6328125 l 1,23,-1
 457.873046875 286.103515625 l 1,0,-1
202.1640625 315.484375 m 1,24,-1
 297.8359375 315.484375 l 1,25,-1
 365.484375 247.8359375 l 1,26,-1
 365.484375 152.1640625 l 1,27,-1
 297.8359375 84.515625 l 1,28,-1
 202.1640625 84.515625 l 1,29,-1
 134.515625 152.1640625 l 1,30,-1
 134.515625 247.8359375 l 1,31,-1
 202.1640625 315.484375 l 1,24,-1
221.30078125 269.291015625 m 1,32,-1
 180.7109375 228.701171875 l 1,33,-1
 180.7109375 171.30078125 l 1,34,-1
 221.30078125 130.7109375 l 1,35,-1
 278.69921875 130.7109375 l 1,36,-1
 319.2890625 171.30078125 l 1,37,-1
 319.2890625 228.69921875 l 1,38,-1
 278.69921875 269.2890625 l 1,39,-1
 278.69921875 269.291015625 l 1,40,-1
 221.30078125 269.291015625 l 1,32,-1
EndSplineSet
EndChar

StartChar: quotedbl
Encoding: 34 34 88
Width: 500
Flags: W
LayerCount: 2
Fore
SplineSet
55.65625 223.09765625 m 1,0,-1
 74.791015625 223.09765625 l 1,1,-1
 88.3203125 209.56640625 l 1,2,-1
 88.3203125 190.43359375 l 1,3,-1
 74.791015625 176.90234375 l 1,4,-1
 55.65625 176.90234375 l 1,5,-1
 42.126953125 190.43359375 l 1,6,-1
 42.126953125 209.56640625 l 1,7,-1
 55.65625 223.09765625 l 1,0,-1
425.208984375 223.09765625 m 1,8,-1
 444.34375 223.09765625 l 1,9,-1
 457.873046875 209.56640625 l 1,10,-1
 457.873046875 190.43359375 l 1,11,-1
 444.34375 176.90234375 l 1,12,-1
 425.208984375 176.90234375 l 1,13,-1
 411.6796875 190.43359375 l 1,14,-1
 411.6796875 209.56640625 l 1,15,-1
 425.208984375 223.09765625 l 1,8,-1
EndSplineSet
EndChar

StartChar: hyphen
Encoding: 45 45 89
Width: 500
Flags: W
LayerCount: 2
Fore
SplineSet
55.65625 223.09765625 m 1,0,-1
 444.34375 223.09765625 l 1,1,-1
 457.873046875 209.56640625 l 1,2,-1
 457.873046875 190.43359375 l 1,3,-1
 444.345703125 176.90234375 l 1,4,-1
 55.65625 176.90234375 l 1,5,-1
 42.126953125 190.43359375 l 1,6,-1
 42.126953125 209.56640625 l 1,7,-1
 55.65625 223.09765625 l 1,0,-1
EndSplineSet
EndChar

StartChar: period
Encoding: 46 46 90
Width: 500
Flags: W
LayerCount: 2
Fore
SplineSet
240.43359375 407.873046875 m 1,0,-1
 259.56640625 407.873046875 l 1,1,-1
 273.09765625 394.34375 l 1,2,-1
 273.09765625 375.208984375 l 1,3,-1
 259.56640625 361.6796875 l 1,4,-1
 240.43359375 361.6796875 l 1,5,-1
 226.90234375 375.208984375 l 1,6,-1
 226.90234375 394.34375 l 1,7,-1
 240.43359375 407.873046875 l 1,0,-1
55.65625 223.09765625 m 1,8,-1
 74.791015625 223.09765625 l 1,9,-1
 88.3203125 209.56640625 l 1,10,-1
 88.3203125 190.43359375 l 1,11,-1
 74.791015625 176.90234375 l 1,12,-1
 55.65625 176.90234375 l 1,13,-1
 42.126953125 190.43359375 l 1,14,-1
 42.126953125 209.56640625 l 1,15,-1
 55.65625 223.09765625 l 1,8,-1
240.43359375 223.09765625 m 1,16,-1
 259.56640625 223.09765625 l 1,17,-1
 273.09765625 209.56640625 l 1,18,-1
 273.09765625 190.43359375 l 1,19,-1
 259.56640625 176.90234375 l 1,20,-1
 240.43359375 176.90234375 l 1,21,-1
 226.90234375 190.43359375 l 1,22,-1
 226.90234375 209.56640625 l 1,23,-1
 240.43359375 223.09765625 l 1,16,-1
425.208984375 223.09765625 m 1,24,-1
 444.34375 223.09765625 l 1,25,-1
 457.873046875 209.56640625 l 1,26,-1
 457.873046875 190.43359375 l 1,27,-1
 444.34375 176.90234375 l 1,28,-1
 425.208984375 176.90234375 l 1,29,-1
 411.6796875 190.43359375 l 1,30,-1
 411.6796875 209.56640625 l 1,31,-1
 425.208984375 223.09765625 l 1,24,-1
240.43359375 38.3203125 m 1,32,-1
 259.56640625 38.3203125 l 1,33,-1
 273.09765625 24.791015625 l 1,34,-1
 273.09765625 5.65625 l 1,35,-1
 259.56640625 -7.873046875 l 1,36,-1
 240.43359375 -7.873046875 l 1,37,-1
 226.90234375 5.65625 l 1,38,-1
 226.90234375 24.791015625 l 1,39,-1
 240.43359375 38.3203125 l 1,32,-1
EndSplineSet
EndChar

StartChar: colon
Encoding: 58 58 91
Width: 500
Flags: W
LayerCount: 2
Fore
SplineSet
240.43359375 407.873046875 m 1,0,-1
 259.56640625 407.873046875 l 1,1,-1
 273.09765625 394.34375 l 1,2,-1
 273.09765625 375.208984375 l 1,3,-1
 259.56640625 361.6796875 l 1,4,-1
 240.43359375 361.6796875 l 1,5,-1
 226.90234375 375.208984375 l 1,6,-1
 226.90234375 394.34375 l 1,7,-1
 240.43359375 407.873046875 l 1,0,-1
55.65625 223.09765625 m 1,8,-1
 74.791015625 223.09765625 l 1,9,-1
 88.3203125 209.56640625 l 1,10,-1
 88.3203125 190.43359375 l 1,11,-1
 74.791015625 176.90234375 l 1,12,-1
 55.65625 176.90234375 l 1,13,-1
 42.126953125 190.43359375 l 1,14,-1
 42.126953125 209.56640625 l 1,15,-1
 55.65625 223.09765625 l 1,8,-1
240.43359375 223.09765625 m 1,16,-1
 259.56640625 223.09765625 l 1,17,-1
 273.09765625 209.56640625 l 1,18,-1
 273.09765625 190.43359375 l 1,19,-1
 259.56640625 176.90234375 l 1,20,-1
 240.43359375 176.90234375 l 1,21,-1
 226.90234375 190.43359375 l 1,22,-1
 226.90234375 209.56640625 l 1,23,-1
 240.43359375 223.09765625 l 1,16,-1
425.208984375 223.09765625 m 1,24,-1
 444.34375 223.09765625 l 1,25,-1
 457.873046875 209.56640625 l 1,26,-1
 457.873046875 190.43359375 l 1,27,-1
 444.34375 176.90234375 l 1,28,-1
 425.208984375 176.90234375 l 1,29,-1
 411.6796875 190.43359375 l 1,30,-1
 411.6796875 209.56640625 l 1,31,-1
 425.208984375 223.09765625 l 1,24,-1
240.43359375 38.3203125 m 1,32,-1
 259.56640625 38.3203125 l 1,33,-1
 273.09765625 24.791015625 l 1,34,-1
 273.09765625 5.65625 l 1,35,-1
 259.56640625 -7.873046875 l 1,36,-1
 240.43359375 -7.873046875 l 1,37,-1
 226.90234375 5.65625 l 1,38,-1
 226.90234375 24.791015625 l 1,39,-1
 240.43359375 38.3203125 l 1,32,-1
202.1640625 315.484375 m 1,40,-1
 297.8359375 315.484375 l 1,41,-1
 365.484375 247.8359375 l 1,42,-1
 365.484375 152.1640625 l 1,43,-1
 297.8359375 84.515625 l 1,44,-1
 202.1640625 84.515625 l 1,45,-1
 134.515625 152.1640625 l 1,46,-1
 134.515625 247.8359375 l 1,47,-1
 202.1640625 315.484375 l 1,40,-1
221.30078125 269.291015625 m 1,48,-1
 180.7109375 228.701171875 l 1,49,-1
 180.7109375 171.30078125 l 1,50,-1
 221.30078125 130.7109375 l 1,51,-1
 278.69921875 130.7109375 l 1,52,-1
 319.2890625 171.30078125 l 1,53,-1
 319.2890625 228.69921875 l 1,54,-1
 278.69921875 269.2890625 l 1,55,-1
 278.69921875 269.291015625 l 1,56,-1
 221.30078125 269.291015625 l 1,48,-1
EndSplineSet
EndChar

StartChar: numbersign
Encoding: 35 35 92
Width: 500
Flags: W
LayerCount: 2
Fore
SplineSet
403.754882812 321.08984375 m 1,0,-1
 128.911132812 46.24609375 l 1,1,-1
 109.776367188 46.2470703125 l 1,2,-1
 96.2470703125 59.775390625 l 1,3,-1
 96.2451171875 78.9111328125 l 1,4,-1
 371.088867188 353.75390625 l 1,5,-1
 390.223632812 353.752929688 l 1,6,-1
 403.752929688 340.223632812 l 1,7,-1
 403.754882812 321.08984375 l 1,0,-1
128.91015625 353.754882812 m 1,8,-1
 403.75390625 78.9111328125 l 1,9,-1
 403.752929688 59.7763671875 l 1,10,-1
 390.224609375 46.2470703125 l 1,11,-1
 371.088867188 46.2451171875 l 1,12,-1
 96.24609375 321.088867188 l 1,13,-1
 96.2470703125 340.223632812 l 1,14,-1
 109.776367188 353.752929688 l 1,15,-1
 128.91015625 353.754882812 l 1,8,-1
202.1640625 315.484375 m 1,16,-1
 297.8359375 315.484375 l 1,17,-1
 351.955078125 261.365234375 l 1,18,-1
 365.484375 247.8359375 l 1,19,-1
 365.484375 228.69921875 l 1,20,-1
 351.953125 215.169921875 l 1,21,-1
 332.8203125 215.169921875 l 1,22,-1
 319.2890625 228.69921875 l 1,23,-1
 319.2890625 228.701171875 l 1,24,-1
 278.69921875 269.2890625 l 1,25,-1
 278.69921875 269.291015625 l 1,26,-1
 221.298828125 269.291015625 l 1,27,-1
 180.708984375 228.701171875 l 1,28,-1
 167.1796875 215.171875 l 1,29,-1
 148.044921875 215.171875 l 1,30,-1
 134.515625 228.701171875 l 1,31,-1
 134.515625 247.8359375 l 1,32,-1
 148.044921875 261.365234375 l 1,33,-1
 202.1640625 315.484375 l 1,16,-1
148.046875 184.830078125 m 1,34,-1
 167.1796875 184.830078125 l 1,35,-1
 180.7109375 171.30078125 l 1,36,-1
 180.7109375 171.298828125 l 1,37,-1
 221.30078125 130.7109375 l 1,38,-1
 221.30078125 130.708984375 l 1,39,-1
 278.701171875 130.708984375 l 1,40,-1
 319.291015625 171.298828125 l 1,41,-1
 332.8203125 184.828125 l 1,42,-1
 351.955078125 184.828125 l 1,43,-1
 365.484375 171.298828125 l 1,44,-1
 365.484375 152.1640625 l 1,45,-1
 351.955078125 138.634765625 l 1,46,-1
 297.8359375 84.515625 l 1,47,-1
 202.1640625 84.515625 l 1,48,-1
 148.044921875 138.634765625 l 1,49,-1
 134.515625 152.1640625 l 1,50,-1
 134.515625 171.30078125 l 1,51,-1
 148.046875 184.830078125 l 1,34,-1
EndSplineSet
EndChar

StartChar: seven
Encoding: 55 55 93
Width: 500
Flags: W
LayerCount: 2
Fore
SplineSet
163.896484375 -7.873046875 m 1,0,-1
 150.366210938 5.65625 l 1,1,-1
 150.366210938 24.7900390625 l 1,2,-1
 163.896484375 38.3203125 l 1,3,-1
 316.970703125 38.3203125 l 1,4,-1
 411.678710938 133.028320312 l 1,5,-1
 411.678710938 266.969726562 l 1,6,-1
 316.970703125 361.677734375 l 1,7,-1
 183.029296875 361.677734375 l 1,8,-1
 88.3212890625 266.969726562 l 1,9,-1
 88.3212890625 113.896484375 l 1,10,-1
 74.791015625 100.366210938 l 1,11,-1
 55.6572265625 100.366210938 l 1,12,-1
 42.126953125 113.896484375 l 1,13,-1
 42.126953125 286.103515625 l 1,14,-1
 163.896484375 407.873046875 l 1,15,-1
 336.103515625 407.873046875 l 1,16,-1
 457.873046875 286.103515625 l 1,17,-1
 457.873046875 113.896484375 l 1,18,-1
 336.103515625 -7.873046875 l 1,19,-1
 163.896484375 -7.873046875 l 1,0,-1
202.1640625 315.484375 m 1,20,-1
 297.8359375 315.484375 l 1,21,-1
 365.484375 247.8359375 l 1,22,-1
 365.484375 152.1640625 l 1,23,-1
 297.8359375 84.515625 l 1,24,-1
 202.1640625 84.515625 l 1,25,-1
 134.515625 152.1640625 l 1,26,-1
 134.515625 247.8359375 l 1,27,-1
 202.1640625 315.484375 l 1,20,-1
221.30078125 269.291015625 m 1,28,-1
 180.7109375 228.701171875 l 1,29,-1
 180.7109375 171.30078125 l 1,30,-1
 221.30078125 130.7109375 l 1,31,-1
 278.69921875 130.7109375 l 1,32,-1
 319.2890625 171.30078125 l 1,33,-1
 319.2890625 228.69921875 l 1,34,-1
 278.69921875 269.2890625 l 1,35,-1
 278.69921875 269.291015625 l 1,36,-1
 221.30078125 269.291015625 l 1,28,-1
EndSplineSet
EndChar

StartChar: uni25CC
Encoding: 9676 9676 95
Width: 500
Flags: W
AnchorPoint: "vowel" 250 200 basechar 0
LayerCount: 2
Fore
SplineSet
240.43359375 407.873046875 m 1,0,-1
 259.56640625 407.873046875 l 1,1,-1
 273.09765625 394.34375 l 1,2,-1
 273.09765625 375.208984375 l 1,3,-1
 259.56640625 361.6796875 l 1,4,-1
 240.43359375 361.6796875 l 1,5,-1
 226.90234375 375.208984375 l 1,6,-1
 226.90234375 394.34375 l 1,7,-1
 240.43359375 407.873046875 l 1,0,-1
163.896484375 407.87109375 m 1,8,-1
 183.033203125 407.87109375 l 1,9,-1
 196.560546875 394.345703125 l 1,10,-1
 196.560546875 375.2109375 l 1,11,-1
 183.03125 361.6796875 l 1,12,-1
 183.029296875 361.6796875 l 1,13,-1
 88.3203125 266.970703125 l 1,14,-1
 88.3203125 266.96875 l 1,15,-1
 74.791015625 253.4375 l 1,16,-1
 55.65625 253.4375 l 1,17,-1
 42.126953125 266.96875 l 1,18,-1
 42.126953125 286.1015625 l 1,19,-1
 42.126953125 286.103515625 l 1,20,-1
 55.65625 299.6328125 l 1,21,-1
 150.3671875 394.34375 l 1,22,-1
 163.896484375 407.87109375 l 1,8,-1
316.96875 407.87109375 m 1,23,-1
 336.103515625 407.87109375 l 1,24,-1
 444.34375 299.6328125 l 1,25,-1
 457.873046875 286.103515625 l 1,26,-1
 457.873046875 266.96875 l 1,27,-1
 444.345703125 253.439453125 l 1,28,-1
 425.2109375 253.439453125 l 1,29,-1
 411.6796875 266.96875 l 1,30,-1
 364.32421875 314.32421875 l 1,31,-1
 316.970703125 361.677734375 l 1,32,-1
 316.970703125 361.6796875 l 1,33,-1
 303.439453125 375.208984375 l 1,34,-1
 303.439453125 394.34375 l 1,35,-1
 316.96875 407.87109375 l 1,23,-1
55.65625 223.09765625 m 1,36,-1
 74.791015625 223.09765625 l 1,37,-1
 88.3203125 209.56640625 l 1,38,-1
 88.3203125 190.43359375 l 1,39,-1
 74.791015625 176.90234375 l 1,40,-1
 55.65625 176.90234375 l 1,41,-1
 42.126953125 190.43359375 l 1,42,-1
 42.126953125 209.56640625 l 1,43,-1
 55.65625 223.09765625 l 1,36,-1
425.208984375 223.09765625 m 1,44,-1
 444.34375 223.09765625 l 1,45,-1
 457.873046875 209.56640625 l 1,46,-1
 457.873046875 190.43359375 l 1,47,-1
 444.34375 176.90234375 l 1,48,-1
 425.208984375 176.90234375 l 1,49,-1
 411.6796875 190.43359375 l 1,50,-1
 411.6796875 209.56640625 l 1,51,-1
 425.208984375 223.09765625 l 1,44,-1
55.65625 146.560546875 m 1,52,-1
 74.7890625 146.560546875 l 1,53,-1
 88.3203125 133.029296875 l 1,54,-1
 183.029296875 38.3203125 l 1,55,-1
 183.03125 38.3203125 l 1,56,-1
 196.560546875 24.7890625 l 1,57,-1
 196.560546875 5.65625 l 1,58,-1
 183.03125 -7.873046875 l 1,59,-1
 163.896484375 -7.873046875 l 1,60,-1
 150.3671875 5.654296875 l 1,61,-1
 55.65625 100.3671875 l 1,62,-1
 42.126953125 113.89453125 l 1,63,-1
 42.126953125 113.896484375 l 1,64,-1
 42.126953125 133.029296875 l 1,65,-1
 55.65625 146.560546875 l 1,52,-1
425.2109375 146.560546875 m 1,66,-1
 444.345703125 146.560546875 l 1,67,-1
 457.873046875 133.03125 l 1,68,-1
 457.873046875 113.896484375 l 1,69,-1
 444.345703125 100.3671875 l 1,70,-1
 349.6328125 5.65625 l 1,71,-1
 336.103515625 -7.873046875 l 1,72,-1
 316.970703125 -7.873046875 l 1,73,-1
 303.439453125 5.654296875 l 1,74,-1
 303.439453125 24.7890625 l 1,75,-1
 316.970703125 38.3203125 l 1,76,-1
 411.6796875 133.029296875 l 1,77,-1
 425.2109375 146.560546875 l 1,66,-1
240.43359375 38.3203125 m 1,78,-1
 259.56640625 38.3203125 l 1,79,-1
 273.09765625 24.791015625 l 1,80,-1
 273.09765625 5.65625 l 1,81,-1
 259.56640625 -7.873046875 l 1,82,-1
 240.43359375 -7.873046875 l 1,83,-1
 226.90234375 5.65625 l 1,84,-1
 226.90234375 24.791015625 l 1,85,-1
 240.43359375 38.3203125 l 1,78,-1
EndSplineSet
EndChar

StartChar: acute
Encoding: 180 180 96
Width: 500
Flags: W
LayerCount: 2
Fore
SplineSet
425.208984375 223.09765625 m 1,0,-1
 444.34375 223.09765625 l 1,1,-1
 457.873046875 209.56640625 l 1,2,-1
 457.873046875 190.43359375 l 1,3,-1
 444.34375 176.90234375 l 1,4,-1
 425.208984375 176.90234375 l 1,5,-1
 411.6796875 190.43359375 l 1,6,-1
 411.6796875 209.56640625 l 1,7,-1
 425.208984375 223.09765625 l 1,0,-1
EndSplineSet
EndChar

StartChar: paragraph
Encoding: 182 182 97
Width: 500
Flags: W
LayerCount: 2
Fore
SplineSet
259.567382812 592.649414062 m 1,0,-1
 273.096679688 579.119140625 l 1,1,-1
 273.096679688 -179.120117188 l 1,2,-1
 259.567382812 -192.650390625 l 1,3,-1
 240.432617188 -192.650390625 l 1,4,-1
 226.903320312 -179.120117188 l 1,5,-1
 226.903320312 579.120117188 l 1,6,-1
 240.432617188 592.650390625 l 1,7,-1
 259.567382812 592.649414062 l 1,0,-1
202.1640625 315.484375 m 1,8,-1
 297.8359375 315.484375 l 1,9,-1
 365.484375 247.8359375 l 1,10,-1
 365.484375 152.1640625 l 1,11,-1
 297.8359375 84.515625 l 1,12,-1
 202.1640625 84.515625 l 1,13,-1
 134.515625 152.1640625 l 1,14,-1
 134.515625 247.8359375 l 1,15,-1
 202.1640625 315.484375 l 1,8,-1
221.30078125 269.291015625 m 1,16,-1
 180.7109375 228.701171875 l 1,17,-1
 180.7109375 171.30078125 l 1,18,-1
 221.30078125 130.7109375 l 1,19,-1
 278.69921875 130.7109375 l 1,20,-1
 319.2890625 171.30078125 l 1,21,-1
 319.2890625 228.69921875 l 1,22,-1
 278.69921875 269.2890625 l 1,23,-1
 278.69921875 269.291015625 l 1,24,-1
 221.30078125 269.291015625 l 1,16,-1
EndSplineSet
EndChar

StartChar: acutecomb
Encoding: 769 769 98
Width: 0
Flags: W
LayerCount: 2
Fore
SplineSet
-233.435546875 481.783203125 m 1,0,-1
 -229.609375 481.783203125 l 1,1,-1
 -226.90234375 479.078125 l 1,2,-1
 -226.90234375 475.25 l 1,3,-1
 -229.609375 472.544921875 l 1,4,-1
 -233.435546875 472.544921875 l 1,5,-1
 -236.142578125 475.25 l 1,6,-1
 -236.142578125 479.078125 l 1,7,-1
 -233.435546875 481.783203125 l 1,0,-1
EndSplineSet
EndChar

StartChar: uni0317
Encoding: 791 791 99
Width: 0
Flags: W
LayerCount: 2
Fore
SplineSet
-233.435546875 -72.544921875 m 1,0,-1
 -229.609375 -72.544921875 l 1,1,-1
 -226.90234375 -75.25 l 1,2,-1
 -226.90234375 -79.078125 l 1,3,-1
 -229.609375 -81.783203125 l 1,4,-1
 -233.435546875 -81.783203125 l 1,5,-1
 -236.142578125 -79.078125 l 1,6,-1
 -236.142578125 -75.25 l 1,7,-1
 -233.435546875 -72.544921875 l 1,0,-1
EndSplineSet
EndChar

StartChar: gravecomb
Encoding: 768 768 100
Width: 0
Flags: W
LayerCount: 2
Fore
SplineSet
-270.390625 481.783203125 m 1,0,-1
 -266.564453125 481.783203125 l 1,1,-1
 -263.857421875 479.078125 l 1,2,-1
 -263.857421875 475.25 l 1,3,-1
 -266.564453125 472.544921875 l 1,4,-1
 -270.390625 472.544921875 l 1,5,-1
 -273.09765625 475.25 l 1,6,-1
 -273.09765625 479.078125 l 1,7,-1
 -270.390625 481.783203125 l 1,0,-1
EndSplineSet
EndChar

StartChar: uni0316
Encoding: 790 790 101
Width: 0
Flags: W
LayerCount: 2
Fore
SplineSet
-270.390625 -72.544921875 m 1,0,-1
 -266.564453125 -72.544921875 l 1,1,-1
 -263.857421875 -75.25 l 1,2,-1
 -263.857421875 -79.078125 l 1,3,-1
 -266.564453125 -81.783203125 l 1,4,-1
 -270.390625 -81.783203125 l 1,5,-1
 -273.09765625 -79.078125 l 1,6,-1
 -273.09765625 -75.25 l 1,7,-1
 -270.390625 -72.544921875 l 1,0,-1
EndSplineSet
EndChar

StartChar: uni0302
Encoding: 770 770 102
Width: 0
Flags: W
LayerCount: 2
Fore
SplineSet
-251.9140625 500.26171875 m 1,0,-1
 -248.0859375 500.26171875 l 1,1,-1
 -245.380859375 497.5546875 l 1,2,-1
 -245.380859375 493.728515625 l 1,3,-1
 -248.0859375 491.021484375 l 1,4,-1
 -251.9140625 491.021484375 l 1,5,-1
 -254.619140625 493.728515625 l 1,6,-1
 -254.619140625 497.5546875 l 1,7,-1
 -251.9140625 500.26171875 l 1,0,-1
-270.390625 481.783203125 m 1,8,-1
 -266.564453125 481.783203125 l 1,9,-1
 -263.857421875 479.078125 l 1,10,-1
 -263.857421875 475.25 l 1,11,-1
 -266.564453125 472.544921875 l 1,12,-1
 -270.390625 472.544921875 l 1,13,-1
 -273.09765625 475.25 l 1,14,-1
 -273.09765625 479.078125 l 1,15,-1
 -270.390625 481.783203125 l 1,8,-1
-233.435546875 481.783203125 m 1,16,-1
 -229.609375 481.783203125 l 1,17,-1
 -226.90234375 479.078125 l 1,18,-1
 -226.90234375 475.25 l 1,19,-1
 -229.609375 472.544921875 l 1,20,-1
 -233.435546875 472.544921875 l 1,21,-1
 -236.142578125 475.25 l 1,22,-1
 -236.142578125 479.078125 l 1,23,-1
 -233.435546875 481.783203125 l 1,16,-1
EndSplineSet
EndChar

StartChar: uni032D
Encoding: 813 813 103
Width: 0
Flags: W
LayerCount: 2
Fore
SplineSet
-251.9140625 -54.06640625 m 1,0,-1
 -248.0859375 -54.06640625 l 1,1,-1
 -245.380859375 -56.7734375 l 1,2,-1
 -245.380859375 -60.599609375 l 1,3,-1
 -248.0859375 -63.306640625 l 1,4,-1
 -251.9140625 -63.306640625 l 1,5,-1
 -254.619140625 -60.599609375 l 1,6,-1
 -254.619140625 -56.7734375 l 1,7,-1
 -251.9140625 -54.06640625 l 1,0,-1
-270.390625 -72.544921875 m 1,8,-1
 -266.564453125 -72.544921875 l 1,9,-1
 -263.857421875 -75.25 l 1,10,-1
 -263.857421875 -79.078125 l 1,11,-1
 -266.564453125 -81.783203125 l 1,12,-1
 -270.390625 -81.783203125 l 1,13,-1
 -273.09765625 -79.078125 l 1,14,-1
 -273.09765625 -75.25 l 1,15,-1
 -270.390625 -72.544921875 l 1,8,-1
-233.435546875 -72.544921875 m 1,16,-1
 -229.609375 -72.544921875 l 1,17,-1
 -226.90234375 -75.25 l 1,18,-1
 -226.90234375 -79.078125 l 1,19,-1
 -229.609375 -81.783203125 l 1,20,-1
 -233.435546875 -81.783203125 l 1,21,-1
 -236.142578125 -79.078125 l 1,22,-1
 -236.142578125 -75.25 l 1,23,-1
 -233.435546875 -72.544921875 l 1,16,-1
EndSplineSet
EndChar

StartChar: uni030C
Encoding: 780 780 104
Width: 0
Flags: W
LayerCount: 2
Fore
SplineSet
-270.390625 481.783203125 m 1,0,-1
 -266.564453125 481.783203125 l 1,1,-1
 -263.857421875 479.078125 l 1,2,-1
 -263.857421875 475.25 l 1,3,-1
 -266.564453125 472.544921875 l 1,4,-1
 -270.390625 472.544921875 l 1,5,-1
 -273.09765625 475.25 l 1,6,-1
 -273.09765625 479.078125 l 1,7,-1
 -270.390625 481.783203125 l 1,0,-1
-233.435546875 481.783203125 m 1,8,-1
 -229.609375 481.783203125 l 1,9,-1
 -226.90234375 479.078125 l 1,10,-1
 -226.90234375 475.25 l 1,11,-1
 -229.609375 472.544921875 l 1,12,-1
 -233.435546875 472.544921875 l 1,13,-1
 -236.142578125 475.25 l 1,14,-1
 -236.142578125 479.078125 l 1,15,-1
 -233.435546875 481.783203125 l 1,8,-1
-251.9140625 463.306640625 m 1,16,-1
 -248.0859375 463.306640625 l 1,17,-1
 -245.380859375 460.599609375 l 1,18,-1
 -245.380859375 456.7734375 l 1,19,-1
 -248.0859375 454.06640625 l 1,20,-1
 -251.9140625 454.06640625 l 1,21,-1
 -254.619140625 456.7734375 l 1,22,-1
 -254.619140625 460.599609375 l 1,23,-1
 -251.9140625 463.306640625 l 1,16,-1
EndSplineSet
EndChar

StartChar: uni032C
Encoding: 812 812 105
Width: 0
Flags: W
LayerCount: 2
Fore
SplineSet
-270.390625 -72.544921875 m 1,0,-1
 -266.564453125 -72.544921875 l 1,1,-1
 -263.857421875 -75.25 l 1,2,-1
 -263.857421875 -79.078125 l 1,3,-1
 -266.564453125 -81.783203125 l 1,4,-1
 -270.390625 -81.783203125 l 1,5,-1
 -273.09765625 -79.078125 l 1,6,-1
 -273.09765625 -75.25 l 1,7,-1
 -270.390625 -72.544921875 l 1,0,-1
-233.435546875 -72.544921875 m 1,8,-1
 -229.609375 -72.544921875 l 1,9,-1
 -226.90234375 -75.25 l 1,10,-1
 -226.90234375 -79.078125 l 1,11,-1
 -229.609375 -81.783203125 l 1,12,-1
 -233.435546875 -81.783203125 l 1,13,-1
 -236.142578125 -79.078125 l 1,14,-1
 -236.142578125 -75.25 l 1,15,-1
 -233.435546875 -72.544921875 l 1,8,-1
-251.9140625 -91.021484375 m 1,16,-1
 -248.0859375 -91.021484375 l 1,17,-1
 -245.380859375 -93.728515625 l 1,18,-1
 -245.380859375 -97.5546875 l 1,19,-1
 -248.0859375 -100.26171875 l 1,20,-1
 -251.9140625 -100.26171875 l 1,21,-1
 -254.619140625 -97.5546875 l 1,22,-1
 -254.619140625 -93.728515625 l 1,23,-1
 -251.9140625 -91.021484375 l 1,16,-1
EndSplineSet
EndChar

StartChar: uni0307
Encoding: 775 775 106
Width: 0
Flags: W
LayerCount: 2
Fore
SplineSet
-251.9140625 500.26171875 m 1,0,-1
 -248.0859375 500.26171875 l 1,1,-1
 -245.380859375 497.5546875 l 1,2,-1
 -245.380859375 493.728515625 l 1,3,-1
 -248.0859375 491.021484375 l 1,4,-1
 -251.9140625 491.021484375 l 1,5,-1
 -254.619140625 493.728515625 l 1,6,-1
 -254.619140625 497.5546875 l 1,7,-1
 -251.9140625 500.26171875 l 1,0,-1
-270.390625 481.783203125 m 1,8,-1
 -266.564453125 481.783203125 l 1,9,-1
 -263.857421875 479.078125 l 1,10,-1
 -263.857421875 475.25 l 1,11,-1
 -266.564453125 472.544921875 l 1,12,-1
 -270.390625 472.544921875 l 1,13,-1
 -273.09765625 475.25 l 1,14,-1
 -273.09765625 479.078125 l 1,15,-1
 -270.390625 481.783203125 l 1,8,-1
-251.9140625 481.783203125 m 1,16,-1
 -248.0859375 481.783203125 l 1,17,-1
 -245.380859375 479.078125 l 1,18,-1
 -245.380859375 475.25 l 1,19,-1
 -248.0859375 472.544921875 l 1,20,-1
 -251.9140625 472.544921875 l 1,21,-1
 -254.619140625 475.25 l 1,22,-1
 -254.619140625 479.078125 l 1,23,-1
 -251.9140625 481.783203125 l 1,16,-1
-233.435546875 481.783203125 m 1,24,-1
 -229.609375 481.783203125 l 1,25,-1
 -226.90234375 479.078125 l 1,26,-1
 -226.90234375 475.25 l 1,27,-1
 -229.609375 472.544921875 l 1,28,-1
 -233.435546875 472.544921875 l 1,29,-1
 -236.142578125 475.25 l 1,30,-1
 -236.142578125 479.078125 l 1,31,-1
 -233.435546875 481.783203125 l 1,24,-1
-251.9140625 463.306640625 m 1,32,-1
 -248.0859375 463.306640625 l 1,33,-1
 -245.380859375 460.599609375 l 1,34,-1
 -245.380859375 456.7734375 l 1,35,-1
 -248.0859375 454.06640625 l 1,36,-1
 -251.9140625 454.06640625 l 1,37,-1
 -254.619140625 456.7734375 l 1,38,-1
 -254.619140625 460.599609375 l 1,39,-1
 -251.9140625 463.306640625 l 1,32,-1
EndSplineSet
EndChar

StartChar: dotbelowcomb
Encoding: 803 803 107
Width: 0
Flags: W
LayerCount: 2
Fore
SplineSet
-251.9140625 -54.06640625 m 1,0,-1
 -248.0859375 -54.06640625 l 1,1,-1
 -245.380859375 -56.7734375 l 1,2,-1
 -245.380859375 -60.599609375 l 1,3,-1
 -248.0859375 -63.306640625 l 1,4,-1
 -251.9140625 -63.306640625 l 1,5,-1
 -254.619140625 -60.599609375 l 1,6,-1
 -254.619140625 -56.7734375 l 1,7,-1
 -251.9140625 -54.06640625 l 1,0,-1
-270.390625 -72.544921875 m 1,8,-1
 -266.564453125 -72.544921875 l 1,9,-1
 -263.857421875 -75.25 l 1,10,-1
 -263.857421875 -79.078125 l 1,11,-1
 -266.564453125 -81.783203125 l 1,12,-1
 -270.390625 -81.783203125 l 1,13,-1
 -273.09765625 -79.078125 l 1,14,-1
 -273.09765625 -75.25 l 1,15,-1
 -270.390625 -72.544921875 l 1,8,-1
-251.9140625 -72.544921875 m 1,16,-1
 -248.0859375 -72.544921875 l 1,17,-1
 -245.380859375 -75.25 l 1,18,-1
 -245.380859375 -79.078125 l 1,19,-1
 -248.0859375 -81.783203125 l 1,20,-1
 -251.9140625 -81.783203125 l 1,21,-1
 -254.619140625 -79.078125 l 1,22,-1
 -254.619140625 -75.25 l 1,23,-1
 -251.9140625 -72.544921875 l 1,16,-1
-233.435546875 -72.544921875 m 1,24,-1
 -229.609375 -72.544921875 l 1,25,-1
 -226.90234375 -75.25 l 1,26,-1
 -226.90234375 -79.078125 l 1,27,-1
 -229.609375 -81.783203125 l 1,28,-1
 -233.435546875 -81.783203125 l 1,29,-1
 -236.142578125 -79.078125 l 1,30,-1
 -236.142578125 -75.25 l 1,31,-1
 -233.435546875 -72.544921875 l 1,24,-1
-251.9140625 -91.021484375 m 1,32,-1
 -248.0859375 -91.021484375 l 1,33,-1
 -245.380859375 -93.728515625 l 1,34,-1
 -245.380859375 -97.5546875 l 1,35,-1
 -248.0859375 -100.26171875 l 1,36,-1
 -251.9140625 -100.26171875 l 1,37,-1
 -254.619140625 -97.5546875 l 1,38,-1
 -254.619140625 -93.728515625 l 1,39,-1
 -251.9140625 -91.021484375 l 1,32,-1
EndSplineSet
EndChar

StartChar: uni0308
Encoding: 776 776 108
Width: 0
Flags: W
LayerCount: 2
Fore
SplineSet
-270.390625 481.783203125 m 1,0,-1
 -266.564453125 481.783203125 l 1,1,-1
 -263.857421875 479.078125 l 1,2,-1
 -263.857421875 475.25 l 1,3,-1
 -266.564453125 472.544921875 l 1,4,-1
 -270.390625 472.544921875 l 1,5,-1
 -273.09765625 475.25 l 1,6,-1
 -273.09765625 479.078125 l 1,7,-1
 -270.390625 481.783203125 l 1,0,-1
-233.435546875 481.783203125 m 1,8,-1
 -229.609375 481.783203125 l 1,9,-1
 -226.90234375 479.078125 l 1,10,-1
 -226.90234375 475.25 l 1,11,-1
 -229.609375 472.544921875 l 1,12,-1
 -233.435546875 472.544921875 l 1,13,-1
 -236.142578125 475.25 l 1,14,-1
 -236.142578125 479.078125 l 1,15,-1
 -233.435546875 481.783203125 l 1,8,-1
EndSplineSet
EndChar

StartChar: uni0324
Encoding: 804 804 109
Width: 0
Flags: W
LayerCount: 2
Fore
SplineSet
-270.390625 -72.544921875 m 1,0,-1
 -266.564453125 -72.544921875 l 1,1,-1
 -263.857421875 -75.25 l 1,2,-1
 -263.857421875 -79.078125 l 1,3,-1
 -266.564453125 -81.783203125 l 1,4,-1
 -270.390625 -81.783203125 l 1,5,-1
 -273.09765625 -79.078125 l 1,6,-1
 -273.09765625 -75.25 l 1,7,-1
 -270.390625 -72.544921875 l 1,0,-1
-233.435546875 -72.544921875 m 1,8,-1
 -229.609375 -72.544921875 l 1,9,-1
 -226.90234375 -75.25 l 1,10,-1
 -226.90234375 -79.078125 l 1,11,-1
 -229.609375 -81.783203125 l 1,12,-1
 -233.435546875 -81.783203125 l 1,13,-1
 -236.142578125 -79.078125 l 1,14,-1
 -236.142578125 -75.25 l 1,15,-1
 -233.435546875 -72.544921875 l 1,8,-1
EndSplineSet
EndChar

StartChar: uni0304
Encoding: 772 772 110
Width: 0
Flags: W
LayerCount: 2
Fore
SplineSet
-229.609375 472.544921875 m 1,0,-1
 -270.390625 472.544921875 l 1,1,-1
 -273.09765625 475.25 l 1,2,-1
 -273.09765625 479.078125 l 1,3,-1
 -270.390625 481.783203125 l 1,4,-1
 -229.609375 481.783203125 l 1,5,-1
 -226.90234375 479.078125 l 1,6,-1
 -226.90234375 475.25 l 1,7,-1
 -229.609375 472.544921875 l 1,0,-1
EndSplineSet
EndChar

StartChar: uni0331
Encoding: 817 817 111
Width: 0
Flags: W
LayerCount: 2
Fore
SplineSet
-229.609375 -81.783203125 m 1,0,-1
 -270.390625 -81.783203125 l 1,1,-1
 -273.09765625 -79.078125 l 1,2,-1
 -273.09765625 -75.25 l 1,3,-1
 -270.390625 -72.544921875 l 1,4,-1
 -229.609375 -72.544921875 l 1,5,-1
 -226.90234375 -75.25 l 1,6,-1
 -226.90234375 -79.078125 l 1,7,-1
 -229.609375 -81.783203125 l 1,0,-1
EndSplineSet
EndChar
